# 
# Wavefront OBJ file
# Converted by the DEEP Exploration Deep Exploration 5 5.0.2.1477 Release
# Right Hemisphere, LTD
# http://www.righthemisphere.com/
# 
mtllib tank_user_body_06.mtl
# object tank_user_body_06
g tank_user_body_06
v 0.80000 0.00000 0.20000
v 1.40000 0.00000 0.20000
v 1.40000 1.00000 0.20000
v 0.80000 1.00000 0.20000
v 0.80000 0.80000 0.40000
v 1.40000 0.80000 0.40000
v 0.80000 0.80000 -1.60000
v 1.40000 0.80000 -1.60000
v 1.40000 -0.00000 -1.40000
v 0.80000 -0.00000 -1.40000
v 1.40000 1.00000 -1.40000
v 0.80000 1.00000 -1.40000
v 0.80000 0.20000 0.40000
v 1.40000 0.20000 0.40000
v 1.40000 0.20000 -1.60000
v 0.80000 0.20000 -1.60000
v 0.80000 0.20000 1.30000
v 0.80000 0.20000 -1.40000
v 0.60000 1.20000 1.20000
v 0.60000 1.20000 -1.40000
v 0.80000 0.60000 1.60000
v 0.80000 0.60000 -1.60000
v 0.80000 0.80000 1.70000
v 1.15000 0.80000 1.35000
v 0.80000 0.90000 1.70000
v 1.15000 0.90000 1.35000
v 0.80000 0.20000 0.60000
v 0.80000 0.20000 0.70000
v 1.15000 0.55000 0.70000
v 1.15000 0.55000 0.60000
v 0.80000 0.80000 0.76000
v 1.15000 0.80000 0.76000
v 1.15000 0.90000 0.70000
v 0.80000 0.90000 0.70000
v 1.15000 0.80000 0.60000
v 0.80000 0.80000 0.60000
v 1.15000 0.74000 0.70000
v 0.80000 0.74000 0.70000
v 1.40032 0.40000 1.03600
v 1.40032 0.47354 1.06646
v 1.40032 0.50400 1.14000
v 1.40032 0.47354 1.21354
v 1.40032 0.40000 1.24400
v 1.40032 0.32646 1.21354
v 1.40032 0.29600 1.14000
v 1.40032 0.32646 1.06646
v 0.82000 0.40000 0.74000
v 0.82000 0.68284 0.85716
v 0.82000 0.80000 1.14000
v 0.82000 0.68284 1.42284
v 0.82000 0.40000 1.54000
v 0.82000 0.11716 1.42284
v 0.82000 0.00000 1.14000
v 0.82000 0.11716 0.85716
v 1.32000 0.40000 0.74000
v 1.32000 0.68284 0.85716
v 1.32000 0.80000 1.14000
v 1.32000 0.68284 1.42284
v 1.32000 0.40000 1.54000
v 1.32000 0.11716 1.42284
v 1.32000 0.00000 1.14000
v 1.32000 0.11716 0.85716
v 0.00000 0.20000 1.30000
v 0.00000 0.20000 -1.40000
v 0.00000 1.20000 1.20000
v 0.00000 1.20000 -1.40000
v 0.00000 0.60000 1.60000
v 0.00000 0.60000 -1.60000
v 1.28000 0.40000 1.03600
v 1.28000 0.47354 1.06646
v 1.28000 0.50400 1.14000
v 1.28000 0.47354 1.21354
v 1.28000 0.40000 1.24400
v 1.28000 0.32646 1.21354
v 1.28000 0.29600 1.14000
v 1.28000 0.32646 1.06646
v -0.80000 0.00000 0.20000
v -1.40000 0.00000 0.20000
v -1.40000 1.00000 0.20000
v -0.80000 1.00000 0.20000
v -0.80000 0.80000 0.40000
v -1.40000 0.80000 0.40000
v -0.80000 0.80000 -1.60000
v -1.40000 0.80000 -1.60000
v -1.40000 -0.00000 -1.40000
v -0.80000 -0.00000 -1.40000
v -1.40000 1.00000 -1.40000
v -0.80000 1.00000 -1.40000
v -0.80000 0.20000 0.40000
v -1.40000 0.20000 0.40000
v -1.40000 0.20000 -1.60000
v -0.80000 0.20000 -1.60000
v -0.80000 0.20000 1.30000
v -0.80000 0.20000 -1.40000
v -0.60000 1.20000 1.20000
v -0.60000 1.20000 -1.40000
v -0.80000 0.60000 1.60000
v -0.80000 0.60000 -1.60000
v -0.80000 0.80000 1.70000
v -1.15000 0.80000 1.35000
v -0.80000 0.90000 1.70000
v -1.15000 0.90000 1.35000
v -0.80000 0.20000 0.60000
v -0.80000 0.20000 0.70000
v -1.15000 0.55000 0.70000
v -1.15000 0.55000 0.60000
v -0.80000 0.80000 0.76000
v -1.15000 0.80000 0.76000
v -1.15000 0.90000 0.70000
v -0.80000 0.90000 0.70000
v -1.15000 0.80000 0.60000
v -0.80000 0.80000 0.60000
v -1.15000 0.74000 0.70000
v -0.80000 0.74000 0.70000
v -1.40032 0.40000 1.03600
v -1.40032 0.47354 1.06646
v -1.40032 0.50400 1.14000
v -1.40032 0.47354 1.21354
v -1.40032 0.40000 1.24400
v -1.40032 0.32646 1.21354
v -1.40032 0.29600 1.14000
v -1.40032 0.32646 1.06646
v -0.82000 0.40000 0.74000
v -0.82000 0.68284 0.85716
v -0.82000 0.80000 1.14000
v -0.82000 0.68284 1.42284
v -0.82000 0.40000 1.54000
v -0.82000 0.11716 1.42284
v -0.82000 0.00000 1.14000
v -0.82000 0.11716 0.85716
v -1.32000 0.40000 0.74000
v -1.32000 0.68284 0.85716
v -1.32000 0.80000 1.14000
v -1.32000 0.68284 1.42284
v -1.32000 0.40000 1.54000
v -1.32000 0.11716 1.42284
v -1.32000 0.00000 1.14000
v -1.32000 0.11716 0.85716
v -1.28000 0.40000 1.03600
v -1.28000 0.47354 1.06646
v -1.28000 0.50400 1.14000
v -1.28000 0.47354 1.21354
v -1.28000 0.40000 1.24400
v -1.28000 0.32646 1.21354
v -1.28000 0.29600 1.14000
v -1.28000 0.32646 1.06646
# 146 verticies
vt 0.18572 0.72618
vt 0.19728 0.71459
vt 0.19728 0.67788
vt 0.21655 0.67788
vt 0.21655 0.72618
vt 0.19728 0.74549
vt 0.07204 0.74549
vt 0.07204 0.72618
vt 0.73578 0.54297
vt 0.71651 0.54297
vt 0.71651 0.64728
vt 0.70495 0.65887
vt 0.52384 0.65887
vt 0.52384 0.67819
vt 0.71651 0.67819
vt 0.73578 0.65887
vt 0.38954 0.44698
vt 0.38954 0.56263
vt 0.35105 0.60118
vt 0.04318 0.60118
vt 0.00469 0.56263
vt 0.00469 0.44698
vt 0.04318 0.40844
vt 0.35105 0.40844
vt 0.35105 0.20651
vt 0.04318 0.20651
vt 0.00469 0.24506
vt 0.00469 0.36071
vt 0.04318 0.39926
vt 0.35105 0.39926
vt 0.38954 0.36071
vt 0.38954 0.24506
vt 0.39870 0.55301
vt 0.51477 0.55301
vt 0.51477 0.24509
vt 0.39870 0.24509
vt 0.91861 0.52390
vt 0.91861 0.83187
vt 0.80254 0.83187
vt 0.80254 0.52390
vt 0.38908 0.87994
vt 0.50515 0.87994
vt 0.50515 0.91854
vt 0.38908 0.91854
vt 0.51477 0.75503
vt 0.51477 0.71648
vt 0.39870 0.71648
vt 0.39870 0.75503
vt 0.38908 0.76416
vt 0.50515 0.76416
vt 0.51477 0.60083
vt 0.39870 0.60083
vt 0.51477 0.56228
vt 0.39870 0.56228
vt 0.51477 0.20660
vt 0.39870 0.20660
vt 0.08288 0.19733
vt 0.00474 0.08169
vt 0.62988 0.08169
vt 0.59081 0.19733
vt 0.59081 0.00459
vt 0.06334 0.00459
vt 0.00461 0.74549
vt 0.00461 0.72618
vt 0.52350 0.20650
vt 0.52350 0.38965
vt 0.59188 0.38965
vt 0.59188 0.27470
vt 0.99573 0.07205
vt 0.99573 0.19733
vt 0.92735 0.19733
vt 0.92735 0.00459
vt 0.99573 0.32233
vt 0.92735 0.32233
vt 0.92735 0.34165
vt 0.99573 0.34165
vt 0.92735 0.46669
vt 0.92735 0.45508
vt 0.99573 0.45508
vt 0.99573 0.46669
vt 0.99573 0.27404
vt 0.92735 0.20643
vt 0.99573 0.41833
vt 0.92735 0.35062
vt 0.19728 0.61028
vt 0.21655 0.61028
vt 0.96128 0.50936
vt 0.94712 0.51522
vt 0.93295 0.50936
vt 0.92708 0.49519
vt 0.93295 0.48103
vt 0.94712 0.47516
vt 0.96128 0.48103
vt 0.96715 0.49519
vt 0.13631 0.77715
vt 0.08173 0.75454
vt 0.02715 0.77715
vt 0.00454 0.83173
vt 0.02715 0.88631
vt 0.08173 0.90892
vt 0.13631 0.88631
vt 0.15892 0.83173
vt 0.52364 0.45192
vt 0.52364 0.50518
vt 0.62059 0.50518
vt 0.62059 0.45192
vt 0.79287 0.94749
vt 0.79287 0.89423
vt 0.88982 0.89423
vt 0.88982 0.94749
vt 0.79287 0.84098
vt 0.88982 0.84098
vt 0.78405 0.79364
vt 0.68710 0.79364
vt 0.68710 0.74038
vt 0.78405 0.74038
vt 0.68710 0.68713
vt 0.78405 0.68713
vt 0.78405 0.80251
vt 0.68710 0.80251
vt 0.68710 0.85577
vt 0.78405 0.85577
vt 0.68710 0.90902
vt 0.78405 0.90902
vt 0.52364 0.39867
vt 0.62059 0.39867
vt 0.29977 0.94400
vt 0.24519 0.96661
vt 0.19061 0.94400
vt 0.16800 0.88942
vt 0.19061 0.83484
vt 0.24519 0.81223
vt 0.29977 0.83484
vt 0.32238 0.88942
vt 0.79354 0.00472
vt 0.63916 0.00472
vt 0.63916 0.53374
vt 0.79354 0.53374
vt 0.80254 0.51451
vt 0.80254 0.00472
vt 0.91861 0.00472
vt 0.91861 0.51451
vt 0.34148 0.80310
vt 0.22569 0.80310
vt 0.22569 0.68746
vt 0.38007 0.68746
vt 0.22569 0.61036
vt 0.38007 0.61036
vt 0.52377 0.88003
vt 0.63956 0.88003
vt 0.67815 0.76438
vt 0.52377 0.76438
vt 0.67815 0.68728
vt 0.52377 0.68728
vt 0.62139 0.30288
vt 0.59976 0.30288
vt 0.59976 0.31370
vt 0.62139 0.31370
vt 0.62139 0.25601
vt 0.59976 0.25601
vt 0.59976 0.24519
vt 0.62139 0.24519
vt 0.59976 0.23438
vt 0.62139 0.23438
vt 0.62139 0.28486
vt 0.59976 0.28486
vt 0.59976 0.27404
vt 0.62139 0.27404
vt 0.59976 0.26322
vt 0.62139 0.26322
vt 0.62139 0.20553
vt 0.59976 0.20553
vt 0.59976 0.21635
vt 0.62139 0.21635
vt 0.59976 0.22716
vt 0.62139 0.22716
vt 0.62139 0.29207
vt 0.59976 0.29207
vt 0.59976 0.29102
# 179 texture verticies
vn 1.00000 0.00000 0.00000
vn -1.00000 0.00000 0.00000
vn 0.00000 -1.00000 0.00000
vn 0.00000 1.00000 -0.00000
vn 0.00000 0.70711 0.70711
vn 0.00000 0.70711 -0.70711
vn 0.00000 0.00000 1.00000
vn 0.00000 -0.00000 -1.00000
vn 0.00000 -0.70711 -0.70711
vn 0.00000 -0.70711 0.70711
vn 0.94868 0.31623 -0.00000
vn 0.99430 0.10663 -0.00000
vn 0.97699 0.21326 -0.00000
vn 0.70711 0.00000 0.70711
vn 0.00000 -0.51450 -0.85749
vn 0.00000 0.70711 -0.70711
vn 0.00000 -0.70711 0.70711
vn 0.00000 0.85749 0.51450
vn 0.70711 -0.70711 0.00000
vn 0.00000 0.38268 -0.92388
vn 0.00000 0.92388 -0.38268
vn 0.00000 0.92388 0.38268
vn 0.00000 0.38268 0.92388
vn 0.00000 -0.38268 0.92388
vn 0.00000 -0.92388 0.38268
vn 0.00000 -0.92388 -0.38268
vn 0.00000 -0.38268 -0.92388
vn 0.00000 0.55470 0.83205
vn 0.00000 -0.60000 0.80000
vn 0.00000 0.31623 -0.94868
vn 0.00000 -0.44721 -0.89443
vn 0.00000 0.38268 -0.92388
vn 0.00000 0.92388 -0.38268
vn 0.00000 0.92388 0.38268
vn 0.00000 0.38268 0.92388
vn 0.00000 -0.38268 0.92388
vn 0.00000 -0.92388 0.38268
vn 0.00000 -0.92388 -0.38268
vn 0.00000 -0.38268 -0.92388
vn -0.97699 0.21326 -0.00000
vn -0.99430 0.10663 -0.00000
vn -0.94868 0.31623 -0.00000
vn -0.70711 0.00000 0.70711
vn -0.70711 -0.70711 0.00000
# 44 normals
usemtl tank_user_body_06
f  32/1/1 37/2/1 29/3/1 30/4/1 35/5/1 33/6/1 26/7/1 24/8/1
f  27/9/2 28/10/2 38/11/2 31/12/2 23/13/2 25/14/2 34/15/2 36/16/2
f  15/17/1 8/18/1 11/19/1 3/20/1 6/21/1 14/22/1 2/23/1 9/24/1
f  10/25/2 1/26/2 13/27/2 5/28/2 4/29/2 12/30/2 7/31/2 16/32/2
f  10/33/3 9/34/3 2/35/3 1/36/3
f  3/37/4 11/38/4 12/39/4 4/40/4
f  5/41/5 6/42/5 3/43/5 4/44/5
f  11/45/6 8/46/6 7/47/6 12/48/6
f  5/41/7 13/49/7 14/50/7 6/42/7
f  8/46/8 15/51/8 16/52/8 7/47/8
f  15/51/9 9/53/9 10/54/9 16/52/9
f  1/36/10 2/35/10 14/55/10 13/56/10
f  19/57/11 21/58/12 22/59/13 20/60/11
f  18/61/1 22/59/13 21/58/12 17/62/1
f  24/8/14 26/7/14 25/63/14 23/64/14
f  23/65/3 31/66/3 32/67/3 24/68/3
f  26/69/4 33/70/4 34/71/4 25/72/4
f  32/73/15 31/74/15 34/75/15 33/76/15
f  35/73/16 36/74/16 34/75/16 33/76/16
f  31/77/17 38/78/17 37/79/17 32/80/17
f  36/74/8 35/73/8 30/81/8 27/82/8
f  29/83/7 37/79/7 38/78/7 28/84/7
f  38/78/18 37/79/18 35/80/18 36/77/18
f  30/4/19 29/3/19 28/85/19 27/86/19
f  40/87/1 41/88/1 42/89/1 43/90/1 44/91/1 45/92/1 46/93/1 39/94/1
f  54/95/2 53/96/2 52/97/2 51/98/2 50/99/2 49/100/2 48/101/2 47/102/2
f  47/103/20 48/104/20 56/105/20 55/106/20
f  48/107/21 49/108/21 57/109/21 56/110/21
f  57/109/22 49/108/22 50/111/22 58/112/22
f  58/113/23 50/114/23 51/115/23 59/116/23
f  59/116/24 51/115/24 52/117/24 60/118/24
f  60/119/25 52/120/25 53/121/25 61/122/25
f  53/121/26 54/123/26 62/124/26 61/122/26
f  54/125/27 47/103/27 55/106/27 62/126/27
f  56/127/1 57/128/1 58/129/1 59/130/1 60/131/1 61/132/1 62/133/1\
55/134/1
f  17/135/3 63/136/3 64/137/3 18/138/3
f  66/139/4 65/140/4 19/141/4 20/142/4
f  19/143/28 65/144/28 67/145/28 21/146/28
f  67/145/29 63/147/29 17/148/29 21/146/29
f  66/149/30 20/150/30 22/151/30 68/152/30
f  18/153/31 64/154/31 68/152/31 22/151/31
f  39/155/32 69/156/32 70/157/32 40/158/32
f  40/159/33 70/160/33 71/161/33 41/162/33
f  41/162/34 71/161/34 72/163/34 42/164/34
f  42/165/35 72/166/35 73/167/35 43/168/35
f  43/168/36 73/167/36 74/169/36 44/170/36
f  44/171/37 74/172/37 75/173/37 45/174/37
f  45/174/38 75/173/38 76/175/38 46/176/38
f  46/177/39 76/178/39 69/156/39 39/155/39
f  102/7/2 109/6/2 111/5/2 106/4/2 105/3/2 113/2/2 108/1/2 100/8/2
f  110/15/1 101/14/1 99/13/1 107/12/1 114/11/1 104/10/1 103/9/1\
112/16/1
f  78/23/2 90/22/2 82/21/2 79/20/2 87/19/2 84/18/2 91/17/2 85/24/2
f  83/31/1 88/30/1 80/29/1 81/28/1 89/27/1 77/26/1 86/25/1 92/32/1
f  78/35/3 85/34/3 86/33/3 77/36/3
f  88/39/4 87/38/4 79/37/4 80/40/4
f  79/43/5 82/42/5 81/41/5 80/44/5
f  83/47/6 84/46/6 87/45/6 88/48/6
f  90/50/7 89/49/7 81/41/7 82/42/7
f  92/52/8 91/51/8 84/46/8 83/47/8
f  86/54/9 85/53/9 91/51/9 92/52/9
f  90/55/10 78/35/10 77/36/10 89/56/10
f  98/59/40 97/58/41 95/57/42 96/60/42
f  97/58/41 98/59/40 94/61/2 93/62/2
f  101/63/43 102/7/43 100/8/43 99/64/43
f  108/67/3 107/66/3 99/65/3 100/68/3
f  110/71/4 109/70/4 102/69/4 101/72/4
f  110/75/15 107/74/15 108/73/15 109/76/15
f  110/75/16 112/74/16 111/73/16 109/76/16
f  113/79/17 114/78/17 107/77/17 108/80/17
f  106/81/8 111/73/8 112/74/8 103/82/8
f  114/78/7 113/79/7 105/83/7 104/84/7
f  111/80/18 113/79/18 114/78/18 112/77/18
f  104/85/44 105/3/44 106/4/44 103/86/44
f  122/93/2 121/92/2 120/91/2 119/90/2 118/89/2 117/88/2 116/87/2\
115/94/2
f  124/101/1 125/100/1 126/99/1 127/98/1 128/97/1 129/96/1 130/95/1\
123/102/1
f  132/105/20 124/104/20 123/103/20 131/106/20
f  133/109/21 125/108/21 124/107/21 132/110/21
f  126/111/22 125/108/22 133/109/22 134/112/22
f  127/115/23 126/114/23 134/113/23 135/116/23
f  128/117/24 127/115/24 135/116/24 136/118/24
f  129/121/25 128/120/25 136/119/25 137/122/25
f  138/124/26 130/123/26 129/121/26 137/122/26
f  131/106/27 123/103/27 130/125/27 138/126/27
f  138/133/2 137/132/2 136/131/2 135/130/2 134/129/2 133/128/2\
132/127/2 131/134/2
f  64/137/3 63/136/3 93/135/3 94/138/3
f  95/141/4 65/140/4 66/139/4 96/142/4
f  67/145/28 65/144/28 95/143/28 97/146/28
f  93/148/29 63/147/29 67/145/29 97/146/29
f  98/151/30 96/150/30 66/149/30 68/152/30
f  68/152/31 64/154/31 94/153/31 98/151/31
f  140/157/32 139/156/32 115/155/32 116/158/32
f  141/161/33 140/160/33 116/159/33 117/162/33
f  142/163/34 141/161/34 117/162/34 118/164/34
f  143/167/35 142/166/35 118/165/35 119/168/35
f  144/169/36 143/167/36 119/168/36 120/170/36
f  145/173/37 144/172/37 120/171/37 121/174/37
f  146/175/38 145/173/38 121/174/38 122/176/38
f  139/156/39 146/179/39 122/177/39 115/155/39
