# 
# Wavefront OBJ file
# Converted by the DEEP Exploration Deep Exploration 5 5.0.2.1477 Release
# Right Hemisphere, LTD
# http://www.righthemisphere.com/
# 
mtllib tank_user_body_08.mtl
# object tank_user_body_08
g tank_user_body_08
v 0.72000 0.28000 1.60000
v 0.72000 0.28000 -1.60000
v 1.00000 1.00000 1.80000
v 1.00000 1.00000 0.60000
v 1.00000 1.00000 -1.80000
v 0.80000 1.60000 1.60000
v 0.80000 1.60000 1.00000
v 1.20000 0.60000 0.21000
v 1.20000 0.70000 0.21000
v 1.20000 0.81000 0.10000
v 1.20000 0.81000 -1.50000
v 1.20000 0.70000 -1.61000
v 1.20000 0.60000 -1.61000
v 1.20000 0.60000 0.25000
v 1.20000 0.72000 0.25000
v 1.20000 0.85000 0.12000
v 1.20000 0.85000 -1.52000
v 1.20000 0.72000 -1.65000
v 1.20000 0.60000 -1.65000
v 1.20000 0.60000 1.61000
v 1.20000 0.70000 1.61000
v 1.20000 0.81000 1.50000
v 1.20000 0.81000 0.90000
v 1.20000 0.70000 0.79000
v 1.20000 0.60000 0.79000
v 1.20000 0.60000 1.65000
v 1.20000 0.72000 1.65000
v 1.20000 0.85000 1.52000
v 1.20000 0.85000 0.88000
v 1.20000 0.72000 0.75000
v 1.20000 0.60000 0.75000
v 0.80000 0.38000 -1.56000
v 0.80000 0.61511 -1.48361
v 0.80000 0.76042 -1.28361
v 0.80000 0.76042 -1.03639
v 0.80000 0.61511 -0.83639
v 0.80000 0.38000 -0.76000
v 0.80000 0.14489 -0.83639
v 0.80000 -0.00042 -1.03639
v 0.80000 -0.00042 -1.28361
v 0.80000 0.14489 -1.48361
v 1.20000 0.38000 -1.56000
v 1.20000 0.61511 -1.48361
v 1.20000 0.76042 -1.28361
v 1.20000 0.76042 -1.03639
v 1.20000 0.61511 -0.83639
v 1.20000 0.38000 -0.76000
v 1.20000 0.14489 -0.83639
v 1.20000 -0.00042 -1.03639
v 1.20000 -0.00042 -1.28361
v 1.20000 0.14489 -1.48361
v 0.00000 0.28000 1.60000
v 0.00000 0.28000 -1.60000
v 0.00000 1.00000 1.80000
v 0.00000 1.00000 -1.80000
v 0.00000 1.60000 1.60000
v 0.00000 1.60000 1.00000
v 0.00000 1.00000 0.60000
v 0.76000 0.60000 0.21000
v 0.76000 0.70000 0.21000
v 0.76000 0.81000 0.10000
v 0.76000 0.81000 -1.50000
v 0.76000 0.70000 -1.61000
v 0.76000 0.60000 -1.61000
v 0.76000 0.60000 0.25000
v 0.76000 0.60000 -1.65000
v 0.76000 0.72000 0.25000
v 0.76000 0.85000 0.12000
v 0.76000 0.85000 -1.52000
v 0.76000 0.72000 -1.65000
v 0.76000 0.60000 1.61000
v 0.76000 0.70000 1.61000
v 0.76000 0.81000 1.50000
v 0.76000 0.81000 0.90000
v 0.76000 0.70000 0.79000
v 0.76000 0.60000 0.79000
v 0.76000 0.60000 1.65000
v 0.76000 0.60000 0.75000
v 0.76000 0.72000 1.65000
v 0.76000 0.85000 1.52000
v 0.76000 0.85000 0.88000
v 0.76000 0.72000 0.75000
v 0.80000 0.38000 0.80000
v 0.80000 0.61511 0.87639
v 0.80000 0.76042 1.07639
v 0.80000 0.76042 1.32361
v 0.80000 0.61511 1.52361
v 0.80000 0.38000 1.60000
v 0.80000 0.14489 1.52361
v 0.80000 -0.00042 1.32361
v 0.80000 -0.00042 1.07639
v 0.80000 0.14489 0.87639
v 1.20000 0.38000 0.80000
v 1.20000 0.61511 0.87639
v 1.20000 0.76042 1.07639
v 1.20000 0.76042 1.32361
v 1.20000 0.61511 1.52361
v 1.20000 0.38000 1.60000
v 1.20000 0.14489 1.52361
v 1.20000 -0.00042 1.32361
v 1.20000 -0.00042 1.07639
v 1.20000 0.14489 0.87639
v 0.80000 0.38000 -0.66000
v 0.80000 0.61511 -0.58361
v 0.80000 0.76042 -0.38361
v 0.80000 0.76042 -0.13639
v 0.80000 0.61511 0.06361
v 0.80000 0.38000 0.14000
v 0.80000 0.14489 0.06361
v 0.80000 -0.00042 -0.13639
v 0.80000 -0.00042 -0.38361
v 0.80000 0.14489 -0.58361
v 1.20000 0.38000 -0.66000
v 1.20000 0.61511 -0.58361
v 1.20000 0.76042 -0.38361
v 1.20000 0.76042 -0.13639
v 1.20000 0.61511 0.06361
v 1.20000 0.38000 0.14000
v 1.20000 0.14489 0.06361
v 1.20000 -0.00042 -0.13639
v 1.20000 -0.00042 -0.38361
v 1.20000 0.14489 -0.58361
v -0.72000 0.28000 1.60000
v -0.72000 0.28000 -1.60000
v -1.00000 1.00000 1.80000
v -1.00000 1.00000 0.60000
v -1.00000 1.00000 -1.80000
v -0.80000 1.60000 1.60000
v -0.80000 1.60000 1.00000
v -1.20000 0.60000 0.21000
v -1.20000 0.70000 0.21000
v -1.20000 0.81000 0.10000
v -1.20000 0.81000 -1.50000
v -1.20000 0.70000 -1.61000
v -1.20000 0.60000 -1.61000
v -1.20000 0.60000 0.25000
v -1.20000 0.72000 0.25000
v -1.20000 0.85000 0.12000
v -1.20000 0.85000 -1.52000
v -1.20000 0.72000 -1.65000
v -1.20000 0.60000 -1.65000
v -1.20000 0.60000 1.61000
v -1.20000 0.70000 1.61000
v -1.20000 0.81000 1.50000
v -1.20000 0.81000 0.90000
v -1.20000 0.70000 0.79000
v -1.20000 0.60000 0.79000
v -1.20000 0.60000 1.65000
v -1.20000 0.72000 1.65000
v -1.20000 0.85000 1.52000
v -1.20000 0.85000 0.88000
v -1.20000 0.72000 0.75000
v -1.20000 0.60000 0.75000
v -0.80000 0.38000 -1.56000
v -0.80000 0.61511 -1.48361
v -0.80000 0.76042 -1.28361
v -0.80000 0.76042 -1.03639
v -0.80000 0.61511 -0.83639
v -0.80000 0.38000 -0.76000
v -0.80000 0.14489 -0.83639
v -0.80000 -0.00042 -1.03639
v -0.80000 -0.00042 -1.28361
v -0.80000 0.14489 -1.48361
v -1.20000 0.38000 -1.56000
v -1.20000 0.61511 -1.48361
v -1.20000 0.76042 -1.28361
v -1.20000 0.76042 -1.03639
v -1.20000 0.61511 -0.83639
v -1.20000 0.38000 -0.76000
v -1.20000 0.14489 -0.83639
v -1.20000 -0.00042 -1.03639
v -1.20000 -0.00042 -1.28361
v -1.20000 0.14489 -1.48361
v -0.76000 0.60000 0.21000
v -0.76000 0.70000 0.21000
v -0.76000 0.81000 0.10000
v -0.76000 0.81000 -1.50000
v -0.76000 0.70000 -1.61000
v -0.76000 0.60000 -1.61000
v -0.76000 0.60000 0.25000
v -0.76000 0.60000 -1.65000
v -0.76000 0.72000 0.25000
v -0.76000 0.85000 0.12000
v -0.76000 0.85000 -1.52000
v -0.76000 0.72000 -1.65000
v -0.76000 0.60000 1.61000
v -0.76000 0.70000 1.61000
v -0.76000 0.81000 1.50000
v -0.76000 0.81000 0.90000
v -0.76000 0.70000 0.79000
v -0.76000 0.60000 0.79000
v -0.76000 0.60000 1.65000
v -0.76000 0.60000 0.75000
v -0.76000 0.72000 1.65000
v -0.76000 0.85000 1.52000
v -0.76000 0.85000 0.88000
v -0.76000 0.72000 0.75000
v -0.80000 0.38000 0.80000
v -0.80000 0.61511 0.87639
v -0.80000 0.76042 1.07639
v -0.80000 0.76042 1.32361
v -0.80000 0.61511 1.52361
v -0.80000 0.38000 1.60000
v -0.80000 0.14489 1.52361
v -0.80000 -0.00042 1.32361
v -0.80000 -0.00042 1.07639
v -0.80000 0.14489 0.87639
v -1.20000 0.38000 0.80000
v -1.20000 0.61511 0.87639
v -1.20000 0.76042 1.07639
v -1.20000 0.76042 1.32361
v -1.20000 0.61511 1.52361
v -1.20000 0.38000 1.60000
v -1.20000 0.14489 1.52361
v -1.20000 -0.00042 1.32361
v -1.20000 -0.00042 1.07639
v -1.20000 0.14489 0.87639
v -0.80000 0.38000 -0.66000
v -0.80000 0.61511 -0.58361
v -0.80000 0.76042 -0.38361
v -0.80000 0.76042 -0.13639
v -0.80000 0.61511 0.06361
v -0.80000 0.38000 0.14000
v -0.80000 0.14489 0.06361
v -0.80000 -0.00042 -0.13639
v -0.80000 -0.00042 -0.38361
v -0.80000 0.14489 -0.58361
v -1.20000 0.38000 -0.66000
v -1.20000 0.61511 -0.58361
v -1.20000 0.76042 -0.38361
v -1.20000 0.76042 -0.13639
v -1.20000 0.61511 0.06361
v -1.20000 0.38000 0.14000
v -1.20000 0.14489 0.06361
v -1.20000 -0.00042 -0.13639
v -1.20000 -0.00042 -0.38361
v -1.20000 0.14489 -0.58361
# 237 verticies
vt 0.55199 0.01071
vt 0.58379 0.11591
vt 0.01145 0.11591
vt 0.04324 0.01071
vt 0.01711 0.23492
vt 0.03375 0.24889
vt 0.27578 0.24889
vt 0.29242 0.23492
vt 0.29242 0.22222
vt 0.29847 0.22222
vt 0.29847 0.23746
vt 0.27880 0.25397
vt 0.03072 0.25397
vt 0.01105 0.23746
vt 0.01105 0.22222
vt 0.01711 0.22222
vt 0.01690 0.49683
vt 0.03472 0.51079
vt 0.13194 0.51079
vt 0.14977 0.49683
vt 0.14977 0.48413
vt 0.15625 0.48413
vt 0.15625 0.49937
vt 0.13519 0.51587
vt 0.03148 0.51587
vt 0.01042 0.49937
vt 0.01042 0.48413
vt 0.01690 0.48413
vt 0.60565 0.52773
vt 0.71065 0.52773
vt 0.71065 0.01143
vt 0.60565 0.01143
vt 0.20223 0.11591
vt 0.13863 0.20357
vt 0.04324 0.20357
vt 0.52572 0.50978
vt 0.49511 0.48639
vt 0.45727 0.48639
vt 0.42666 0.50978
vt 0.41497 0.54762
vt 0.42666 0.58546
vt 0.45727 0.60884
vt 0.49511 0.60884
vt 0.52572 0.58546
vt 0.53741 0.54762
vt 0.93750 0.38095
vt 0.93750 0.41905
vt 0.99107 0.41905
vt 0.99107 0.38095
vt 0.93750 0.10913
vt 0.93750 0.07847
vt 0.99107 0.07847
vt 0.99107 0.10913
vt 0.93750 0.04058
vt 0.99107 0.04058
vt 0.93750 0.00992
vt 0.99107 0.00992
vt 0.99107 0.32381
vt 0.93750 0.32381
vt 0.93750 0.28571
vt 0.99107 0.28571
vt 0.93750 0.24762
vt 0.99107 0.24762
vt 0.99107 0.12897
vt 0.93750 0.12897
vt 0.93750 0.15962
vt 0.99107 0.15962
vt 0.93750 0.19752
vt 0.99107 0.19752
vt 0.93750 0.22817
vt 0.99107 0.22817
vt 0.93750 0.34286
vt 0.99107 0.34286
vt 0.28763 0.49022
vt 0.25701 0.51361
vt 0.21918 0.51361
vt 0.18856 0.49022
vt 0.17687 0.45238
vt 0.18856 0.41454
vt 0.21918 0.39116
vt 0.25701 0.39116
vt 0.28763 0.41454
vt 0.29932 0.45238
vt 0.01042 0.37781
vt 0.01042 0.27262
vt 0.11542 0.27262
vt 0.15625 0.37781
vt 0.60565 0.56000
vt 0.75149 0.56000
vt 0.12708 0.46548
vt 0.01042 0.46548
vt 0.17687 0.37103
vt 0.17687 0.27183
vt 0.29932 0.27183
vt 0.29932 0.37103
vt 0.77232 0.07613
vt 0.77232 0.01134
vt 0.88899 0.01134
vt 0.91815 0.07613
vt 0.77232 0.46485
vt 0.91815 0.46485
vt 0.94286 0.55556
vt 0.86667 0.55556
vt 0.86667 0.57067
vt 0.94286 0.57067
vt 0.86667 0.58730
vt 0.94286 0.58730
vt 0.49048 0.22520
vt 0.41429 0.22520
vt 0.41429 0.46528
vt 0.49048 0.46528
vt 0.84762 0.51587
vt 0.77143 0.51587
vt 0.77143 0.49924
vt 0.84762 0.49924
vt 0.77143 0.48413
vt 0.84762 0.48413
vt 0.50952 0.45833
vt 0.50952 0.47024
vt 0.58571 0.47024
vt 0.58571 0.45833
vt 0.18095 0.52976
vt 0.10476 0.52976
vt 0.10476 0.54167
vt 0.18095 0.54167
vt 0.86667 0.49937
vt 0.86667 0.48413
vt 0.94286 0.48413
vt 0.94286 0.49937
vt 0.86667 0.51587
vt 0.94286 0.51587
vt 0.31905 0.49165
vt 0.31905 0.22534
vt 0.39524 0.22534
vt 0.39524 0.49165
vt 0.31905 0.51276
vt 0.39524 0.51276
vt 0.86667 0.52976
vt 0.86667 0.54167
vt 0.94286 0.54167
vt 0.94286 0.52976
vt 0.08571 0.53175
vt 0.00952 0.53175
vt 0.00952 0.54686
vt 0.08571 0.54686
vt 0.00952 0.56349
vt 0.08571 0.56349
vt 0.58571 0.34325
vt 0.50952 0.34325
vt 0.50952 0.44246
vt 0.58571 0.44246
vt 0.37143 0.56349
vt 0.29524 0.56349
vt 0.29524 0.54686
vt 0.37143 0.54686
vt 0.29524 0.53175
vt 0.37143 0.53175
vt 0.77143 0.52976
vt 0.77143 0.54167
vt 0.84762 0.54167
vt 0.84762 0.52976
vt 0.18095 0.55357
vt 0.10476 0.55357
vt 0.10476 0.56548
vt 0.18095 0.56548
vt 0.77143 0.57079
vt 0.77143 0.55556
vt 0.84762 0.55556
vt 0.84762 0.57079
vt 0.77143 0.58730
vt 0.84762 0.58730
vt 0.50952 0.32341
vt 0.50952 0.22421
vt 0.58571 0.22421
vt 0.58571 0.32341
vt 0.20000 0.54698
vt 0.20000 0.56349
vt 0.27619 0.56349
vt 0.27619 0.54698
vt 0.20000 0.53175
vt 0.27619 0.53175
vt 0.99107 0.38086
# 182 texture verticies
vn 0.93200 -0.36245 0.00000
vn 1.00000 0.00000 0.00000
vn 0.00000 -1.00000 0.00000
vn 0.94868 0.31623 -0.00000
vn -1.00000 0.00000 0.00000
vn 0.00000 0.30902 -0.95106
vn 0.00000 0.80902 -0.58779
vn 0.00000 1.00000 -0.00000
vn 0.00000 0.80902 0.58779
vn 0.00000 0.30902 0.95106
vn 0.00000 -0.30902 0.95106
vn 0.00000 -0.80902 0.58779
vn 0.00000 -0.80902 -0.58779
vn 0.00000 -0.30902 -0.95106
vn 0.00000 0.02540 0.99968
vn 0.00000 -0.26764 0.96352
vn 0.00000 -0.26764 -0.96352
vn 0.00000 0.31623 0.94868
vn 0.00000 0.55470 -0.83205
vn 0.00000 -0.00000 -1.00000
vn 0.00000 -0.70711 -0.70711
vn 0.00000 -0.70711 0.70711
vn 0.00000 0.00000 1.00000
vn 0.00000 0.70711 0.70711
vn 0.00000 0.70711 -0.70711
vn 0.00000 0.70711 -0.70711
vn 0.00000 0.80902 -0.58779
vn 0.00000 -0.80902 -0.58779
vn 0.00000 0.80902 -0.58779
vn 0.00000 0.30902 0.95106
vn 0.00000 -0.30902 0.95106
vn 0.00000 -0.80902 -0.58779
vn -0.93200 -0.36245 0.00000
vn -0.94868 0.31623 -0.00000
vn -1.00000 -0.00000 -0.00000
# 35 normals
usemtl tank_user_body_08
f  2/1/1 5/2/1 3/3/1 1/4/1
f  9/5/2 10/6/2 11/7/2 12/8/2 13/9/2 19/10/2 18/11/2 17/12/2 16/13/2\
15/14/2 14/15/2 8/16/2
f  21/17/2 22/18/2 23/19/2 24/20/2 25/21/2 31/22/2 30/23/2 29/24/2\
28/25/2 27/26/2 26/27/2 20/28/2
f  53/29/3 2/30/3 1/31/3 52/32/3
f  4/33/4 7/34/4 6/35/4 3/3/4
f  41/36/5 40/37/5 39/38/5 38/39/5 37/40/5 36/41/5 35/42/5 34/43/5\
33/44/5 32/45/5
f  32/46/6 33/47/6 43/48/6 42/49/6
f  33/50/7 34/51/7 44/52/7 43/53/7
f  44/52/8 34/51/8 35/54/8 45/55/8
f  45/55/9 35/54/9 36/56/9 46/57/9
f  46/58/10 36/59/10 37/60/10 47/61/10
f  47/61/11 37/60/11 38/62/11 48/63/11
f  48/64/12 38/65/12 39/66/12 49/67/12
f  39/66/3 40/68/3 50/69/3 49/67/3
f  40/68/13 41/70/13 51/71/13 50/69/13
f  41/72/14 32/46/14 42/49/14 51/73/14
f  43/74/2 44/75/2 45/76/2 46/77/2 47/78/2 48/79/2 49/80/2 50/81/2\
51/82/2 42/83/2
f  54/84/15 52/85/16 1/86/16 3/87/15
f  2/30/17 53/29/17 55/88/17 5/89/17
f  6/90/18 56/91/18 54/84/15 3/87/15
f  57/92/8 56/93/8 6/94/8 7/95/8
f  58/96/19 57/97/19 7/98/19 4/99/19
f  55/100/8 58/96/8 4/99/8 5/101/8
f  8/102/20 59/103/20 60/104/20 9/105/20
f  9/105/21 60/104/21 61/106/21 10/107/21
f  10/108/3 61/109/3 62/110/3 11/111/3
f  11/112/22 62/113/22 63/114/22 12/115/22
f  12/115/23 63/114/23 64/116/23 13/117/23
f  65/118/3 59/119/3 8/120/3 14/121/3
f  13/122/3 64/123/3 66/124/3 19/125/3
f  67/126/23 65/127/23 14/128/23 15/129/23
f  68/130/24 67/126/24 15/129/24 16/131/24
f  69/132/8 68/133/8 16/134/8 17/135/8
f  70/136/25 69/132/25 17/135/25 18/137/25
f  66/138/20 70/139/20 18/140/20 19/141/20
f  20/142/20 71/143/20 72/144/20 21/145/20
f  21/145/21 72/144/21 73/146/21 22/147/21
f  22/148/3 73/149/3 74/150/3 23/151/3
f  23/152/22 74/153/22 75/154/22 24/155/22
f  24/155/23 75/154/23 76/156/23 25/157/23
f  77/158/3 71/159/3 20/160/3 26/161/3
f  25/162/3 76/163/3 78/164/3 31/165/3
f  79/166/23 77/167/23 26/168/23 27/169/23
f  80/170/24 79/166/24 27/169/24 28/171/24
f  81/172/8 80/173/8 28/174/8 29/175/8
f  82/176/26 81/177/26 29/178/26 30/179/26
f  78/180/20 82/176/20 30/179/20 31/181/20
f  92/36/5 91/37/5 90/38/5 89/39/5 88/40/5 87/41/5 86/42/5 85/43/5\
84/44/5 83/45/5
f  83/46/6 84/47/6 94/48/6 93/49/6
f  84/50/27 85/51/27 95/52/27 94/53/27
f  95/52/8 85/51/8 86/54/8 96/55/8
f  96/55/9 86/54/9 87/56/9 97/57/9
f  97/58/10 87/59/10 88/60/10 98/61/10
f  98/61/11 88/60/11 89/62/11 99/63/11
f  99/64/12 89/65/12 90/66/12 100/67/12
f  90/66/3 91/68/3 101/69/3 100/67/3
f  91/68/28 92/70/28 102/71/28 101/69/28
f  92/72/14 83/46/14 93/49/14 102/73/14
f  94/74/2 95/75/2 96/76/2 97/77/2 98/78/2 99/79/2 100/80/2 101/81/2\
102/82/2 93/83/2
f  112/36/5 111/37/5 110/38/5 109/39/5 108/40/5 107/41/5 106/42/5\
105/43/5 104/44/5 103/45/5
f  103/46/6 104/47/6 114/48/6 113/49/6
f  104/50/29 105/51/29 115/52/29 114/53/29
f  115/52/8 105/51/8 106/54/8 116/55/8
f  116/55/9 106/54/9 107/56/9 117/57/9
f  117/58/30 107/59/30 108/60/30 118/61/30
f  118/61/31 108/60/31 109/62/31 119/63/31
f  119/64/12 109/65/12 110/66/12 120/67/12
f  110/66/3 111/68/3 121/69/3 120/67/3
f  111/68/32 112/70/32 122/71/32 121/69/32
f  112/72/14 103/46/14 113/49/14 122/73/14
f  114/74/2 115/75/2 116/76/2 117/77/2 118/78/2 119/79/2 120/80/2\
121/81/2 122/82/2 113/83/2
f  125/3/33 127/2/33 124/1/33 123/4/33
f  136/15/5 137/14/5 138/13/5 139/12/5 140/11/5 141/10/5 135/9/5\
134/8/5 133/7/5 132/6/5 131/5/5 130/16/5
f  148/27/5 149/26/5 150/25/5 151/24/5 152/23/5 153/22/5 147/21/5\
146/20/5 145/19/5 144/18/5 143/17/5 142/28/5
f  123/31/3 124/30/3 53/29/3 52/32/3
f  128/35/34 129/34/34 126/33/34 125/3/34
f  155/44/2 156/43/2 157/42/2 158/41/2 159/40/2 160/39/2 161/38/2\
162/37/2 163/36/2 154/45/2
f  165/48/6 155/47/6 154/46/6 164/49/6
f  166/52/7 156/51/7 155/50/7 165/53/7
f  157/54/8 156/51/8 166/52/8 167/55/8
f  158/56/9 157/54/9 167/55/9 168/57/9
f  159/60/10 158/59/10 168/58/10 169/61/10
f  160/62/11 159/60/11 169/61/11 170/63/11
f  161/66/12 160/65/12 170/64/12 171/67/12
f  172/69/3 162/68/3 161/66/3 171/67/3
f  173/71/13 163/70/13 162/68/13 172/69/13
f  164/49/14 154/46/14 163/72/14 173/73/14
f  173/82/5 172/81/5 171/80/5 170/79/5 169/78/5 168/77/5 167/76/5\
166/75/5 165/74/5 164/83/5
f  123/86/16 52/85/16 54/84/15 125/87/15
f  55/88/17 53/29/17 124/30/17 127/89/17
f  54/84/15 56/91/18 128/90/18 125/87/15
f  128/94/8 56/93/8 57/92/8 129/95/8
f  129/98/19 57/97/19 58/96/19 126/99/19
f  126/99/8 58/96/8 55/100/8 127/101/8
f  175/104/20 174/103/20 130/102/20 131/105/20
f  176/106/21 175/104/21 131/105/21 132/107/21
f  177/110/3 176/109/3 132/108/3 133/111/3
f  178/114/22 177/113/22 133/112/22 134/115/22
f  179/116/23 178/114/23 134/115/23 135/117/23
f  130/120/3 174/119/3 180/118/3 136/121/3
f  181/124/3 179/123/3 135/122/3 141/125/3
f  136/128/23 180/127/23 182/126/23 137/129/23
f  137/129/24 182/126/24 183/130/24 138/131/24
f  138/134/8 183/133/8 184/132/8 139/135/8
f  139/135/25 184/132/25 185/136/25 140/137/25
f  140/140/20 185/139/20 181/138/20 141/141/20
f  187/144/20 186/143/20 142/142/20 143/145/20
f  188/146/21 187/144/21 143/145/21 144/147/21
f  189/150/3 188/149/3 144/148/3 145/151/3
f  190/154/22 189/153/22 145/152/22 146/155/22
f  191/156/23 190/154/23 146/155/23 147/157/23
f  142/160/3 186/159/3 192/158/3 148/161/3
f  193/164/3 191/163/3 147/162/3 153/165/3
f  148/168/23 192/167/23 194/166/23 149/169/23
f  149/169/24 194/166/24 195/170/24 150/171/24
f  150/174/8 195/173/8 196/172/8 151/175/8
f  151/178/26 196/177/26 197/176/26 152/179/26
f  152/179/20 197/176/20 193/180/20 153/181/20
f  199/44/2 200/43/2 201/42/2 202/41/2 203/40/2 204/39/2 205/38/2\
206/37/2 207/36/2 198/45/2
f  209/48/6 199/47/6 198/46/6 208/49/6
f  210/52/27 200/51/27 199/50/27 209/53/27
f  201/54/8 200/51/8 210/52/8 211/55/8
f  202/56/9 201/54/9 211/55/9 212/57/9
f  203/60/10 202/59/10 212/58/10 213/61/10
f  204/62/11 203/60/11 213/61/11 214/63/11
f  205/66/12 204/65/12 214/64/12 215/67/12
f  216/69/3 206/68/3 205/66/3 215/67/3
f  217/71/28 207/70/28 206/68/28 216/69/28
f  208/49/14 198/46/14 207/72/14 217/73/14
f  217/82/5 216/81/5 215/80/5 214/79/5 213/78/5 212/77/5 211/76/5\
210/75/5 209/74/5 208/83/5
f  219/44/2 220/43/2 221/42/2 222/41/2 223/40/2 224/39/2 225/38/2\
226/37/2 227/36/2 218/45/2
f  229/48/6 219/47/6 218/46/6 228/49/6
f  230/52/29 220/51/29 219/50/29 229/53/29
f  221/54/8 220/51/8 230/52/8 231/55/8
f  222/56/9 221/54/9 231/55/9 232/57/9
f  223/60/30 222/59/30 232/58/30 233/61/30
f  224/62/31 223/60/31 233/61/31 234/63/31
f  225/66/12 224/65/12 234/64/12 235/67/12
f  236/69/3 226/68/3 225/66/3 235/67/3
f  237/71/32 227/70/32 226/68/32 236/69/32
f  228/182/14 218/46/14 227/72/14 237/73/14
f  237/82/35 236/81/35 235/80/5 234/79/5 233/78/5 232/77/5 231/76/5\
230/75/35 229/74/5 228/83/5
