# 
# Wavefront OBJ file
# Converted by the DEEP Exploration Deep Exploration 5 5.0.2.1477 Release
# Right Hemisphere, LTD
# http://www.righthemisphere.com/
# 
mtllib tank_user_body_11_2.mtl
# object tank_user_body_11_2
g tank_user_body_11_2
v 0.50000 0.00000 0.00000
v 0.25000 -0.00000 -0.43301
v -0.25000 -0.00000 -0.43301
v -0.50000 0.00000 0.00000
v -0.25000 0.00000 0.43301
v 0.25000 0.00000 0.43301
v 0.50000 0.75000 0.00000
v 0.25000 0.75000 -0.43301
v -0.25000 0.75000 -0.43301
v -0.50000 0.75000 0.00000
v -0.25000 0.75000 0.43301
v 0.25000 0.75000 0.43301
v -0.10000 0.15000 1.00000
v 0.10000 0.15000 1.00000
v 0.10000 0.15000 0.40000
v -0.10000 0.15000 0.40000
v -0.10000 0.35000 1.00000
v 0.10000 0.35000 1.00000
v 0.10000 0.35000 0.40000
v -0.10000 0.35000 0.40000
# 20 verticies
vt 0.35147 0.01128
vt 0.12472 0.01128
vt 0.01134 0.21429
vt 0.12472 0.41729
vt 0.35147 0.41729
vt 0.46485 0.21429
vt 0.89348 0.01116
vt 0.89348 0.34598
vt 0.69048 0.34598
vt 0.69048 0.01116
vt 0.01082 0.77455
vt 0.22727 0.77455
vt 0.22727 0.43973
vt 0.01082 0.43973
vt 0.69048 0.70313
vt 0.89348 0.70313
vt 0.89348 0.36830
vt 0.69048 0.36830
vt 0.48747 0.70313
vt 0.48747 0.36830
vt 0.46537 0.77455
vt 0.24892 0.77455
vt 0.24892 0.43973
vt 0.46537 0.43973
vt 0.48747 0.34598
vt 0.48747 0.01116
vt 0.91429 0.29847
vt 0.99048 0.29847
vt 0.99048 0.01105
vt 0.91429 0.01105
vt 0.99048 0.62857
vt 0.99048 0.70476
vt 0.91429 0.70476
vt 0.91429 0.62857
vt 0.29847 0.79524
vt 0.29847 0.87143
vt 0.01105 0.87143
vt 0.01105 0.79524
vt 0.48724 0.80000
vt 0.77466 0.80000
vt 0.77466 0.72381
vt 0.48724 0.72381
vt 0.99048 0.32072
vt 0.99048 0.60799
vt 0.91429 0.60799
vt 0.91429 0.32058
# 46 texture verticies
vn 0.00000 -1.00000 0.00000
vn 0.86603 -0.00000 -0.50000
vn 0.00000 -0.00000 -1.00000
vn -0.86603 -0.00000 -0.50000
vn -0.86603 0.00000 0.50000
vn 0.00000 0.00000 1.00000
vn 0.86603 0.00000 0.50000
vn 1.00000 0.00000 0.00000
vn -1.00000 0.00000 0.00000
vn 0.00000 1.00000 -0.00000
# 10 normals
usemtl tank_user_body_11_2
f  6/1/1 5/2/1 4/3/1 3/4/1 2/5/1 1/6/1
f  2/7/2 8/8/2 7/9/2 1/10/2
f  9/11/3 8/12/3 2/13/3 3/14/3
f  10/15/4 9/16/4 3/17/4 4/18/4
f  11/19/5 10/15/5 4/18/5 5/20/5
f  12/21/6 11/22/6 5/23/6 6/24/6
f  1/10/7 7/9/7 12/25/7 6/26/7
f  16/27/1 15/28/1 14/29/1 13/30/1
f  14/31/6 18/32/6 17/33/6 13/34/6
f  15/35/8 19/36/8 18/37/8 14/38/8
f  17/39/9 20/40/9 16/41/9 13/42/9
f  18/43/10 19/44/10 20/45/10 17/46/10
