# 
# Wavefront OBJ file
# Converted by the DEEP Exploration Deep Exploration 5 5.0.2.1477 Release
# Right Hemisphere, LTD
# http://www.righthemisphere.com/
# 
mtllib tank_user_body_11_1.mtl
# object tank_user_body_11_1
g tank_user_body_11_1
v 0.59000 0.65000 2.25000
v 0.59000 1.14000 2.25000
v 0.85000 0.40000 1.25000
v 0.85000 1.14000 1.25000
v 0.85000 2.64000 0.75000
v 0.85000 0.40000 -0.75000
v 0.85000 2.64000 -0.75000
v 0.50000 1.41000 -1.25000
v 0.50000 2.40000 -1.25000
v 0.10000 2.40000 -2.75000
v 0.10000 2.14000 -2.75000
v 0.00000 2.91000 -3.25000
v 0.00000 2.14000 -3.05000
v 0.00000 1.89000 -3.11000
v 1.89333 0.92000 0.39000
v 2.09000 0.95000 0.13000
v 2.09000 0.95000 -0.61000
v 1.89333 0.92000 -0.67000
v 1.89333 1.11618 0.39000
v 2.09000 1.05618 0.13000
v 2.09000 1.05618 -0.61000
v 1.89333 1.11618 -0.67000
v 1.11000 2.16000 0.60000
v 1.61000 2.16000 0.60000
v 1.85000 1.90000 0.39000
v 1.85000 1.90000 -1.00000
v 1.61000 2.16000 -1.50000
v 1.11000 2.16000 -1.50000
v 0.85000 1.90000 -1.00000
v 0.85000 1.90000 0.39000
v 1.11000 2.66000 0.60000
v 1.61000 2.66000 0.60000
v 1.85000 2.90000 0.39000
v 1.85000 2.90000 -1.00000
v 1.61000 2.66000 -1.50000
v 1.11000 2.66000 -1.50000
v 0.85000 2.90000 -1.00000
v 0.85000 2.90000 0.39000
v 1.55000 1.00000 1.25000
v 1.98301 0.75000 1.25000
v 1.98301 0.25000 1.25000
v 1.55000 0.00000 1.25000
v 1.11699 0.25000 1.25000
v 1.11699 0.75000 1.25000
v 1.55000 1.00000 -1.25000
v 1.98301 0.75000 -1.25000
v 1.98301 0.25000 -1.25000
v 1.55000 -0.00000 -1.25000
v 1.11699 0.25000 -1.25000
v 1.11699 0.75000 -1.25000
v 0.00000 0.65000 2.25000
v 0.00000 0.40000 1.25000
v 0.00000 1.14000 2.25000
v 0.00000 1.14000 1.25000
v 0.00000 2.64000 0.75000
v 0.00000 0.40000 -0.75000
v 0.00000 2.64000 -0.75000
v 0.00000 1.41000 -1.25000
v 0.00000 2.40000 -1.25000
v 0.00000 2.14000 -2.75000
v 0.00000 2.40000 -2.75000
v 0.85000 0.92000 0.39000
v 0.85000 0.92000 -0.67000
v 0.85000 1.11618 0.39000
v 0.85000 1.11618 -0.67000
v -0.59000 0.65000 2.25000
v -0.59000 1.14000 2.25000
v -0.85000 0.40000 1.25000
v -0.85000 1.14000 1.25000
v -0.85000 2.64000 0.75000
v -0.85000 0.40000 -0.75000
v -0.85000 2.64000 -0.75000
v -0.50000 1.41000 -1.25000
v -0.50000 2.40000 -1.25000
v -0.10000 2.40000 -2.75000
v -0.10000 2.14000 -2.75000
v -0.00000 2.91000 -3.25000
v -0.00000 2.14000 -3.05000
v -0.00000 1.89000 -3.11000
v -1.89333 0.92000 0.39000
v -2.09000 0.95000 0.13000
v -2.09000 0.95000 -0.61000
v -1.89333 0.92000 -0.67000
v -1.89333 1.11618 0.39000
v -2.09000 1.05618 0.13000
v -2.09000 1.05618 -0.61000
v -1.89333 1.11618 -0.67000
v -1.11000 2.16000 0.60000
v -1.61000 2.16000 0.60000
v -1.85000 1.90000 0.39000
v -1.85000 1.90000 -1.00000
v -1.61000 2.16000 -1.50000
v -1.11000 2.16000 -1.50000
v -0.85000 1.90000 -1.00000
v -0.85000 1.90000 0.39000
v -1.11000 2.66000 0.60000
v -1.61000 2.66000 0.60000
v -1.85000 2.90000 0.39000
v -1.85000 2.90000 -1.00000
v -1.61000 2.66000 -1.50000
v -1.11000 2.66000 -1.50000
v -0.85000 2.90000 -1.00000
v -0.85000 2.90000 0.39000
v -1.55000 1.00000 1.25000
v -1.98301 0.75000 1.25000
v -1.98301 0.25000 1.25000
v -1.55000 0.00000 1.25000
v -1.11699 0.25000 1.25000
v -1.11699 0.75000 1.25000
v -1.55000 1.00000 -1.25000
v -1.98301 0.75000 -1.25000
v -1.98301 0.25000 -1.25000
v -1.55000 -0.00000 -1.25000
v -1.11699 0.25000 -1.25000
v -1.11699 0.75000 -1.25000
v -0.85000 0.92000 0.39000
v -0.85000 0.92000 -0.67000
v -0.85000 1.11618 0.39000
v -0.85000 1.11618 -0.67000
# 119 verticies
vt 0.38457 0.01852
vt 0.38457 0.28294
vt 0.20213 0.28294
vt 0.14131 0.10587
vt 0.14131 0.01852
vt 0.84896 0.37922
vt 0.94271 0.37922
vt 0.94271 0.13914
vt 0.84896 0.13914
vt 0.01968 0.10587
vt 0.01968 0.04803
vt 0.44539 0.13775
vt 0.44539 0.25461
vt 0.62784 0.22392
vt 0.62784 0.25461
vt 0.66433 0.22392
vt 0.87885 0.85833
vt 0.90000 0.85079
vt 0.90000 0.75770
vt 0.87885 0.72500
vt 0.05133 0.84694
vt 0.05133 0.85821
vt 0.01667 0.86458
vt 0.01667 0.84375
vt 0.15000 0.84694
vt 0.15000 0.85821
vt 0.37885 0.69792
vt 0.40000 0.69154
vt 0.40000 0.68027
vt 0.37885 0.67708
vt 0.40000 0.75770
vt 0.40000 0.85079
vt 0.37885 0.85833
vt 0.37885 0.72500
vt 0.43333 0.80833
vt 0.56667 0.80833
vt 0.53467 0.84300
vt 0.46800 0.84300
vt 0.85000 0.63379
vt 0.98333 0.63379
vt 0.98333 0.47619
vt 0.85000 0.47619
vt 0.88467 0.69048
vt 0.95133 0.69048
vt 0.53467 0.90967
vt 0.46800 0.90967
vt 0.56667 0.94167
vt 0.17545 0.68333
vt 0.17545 0.81667
vt 0.01786 0.81667
vt 0.01786 0.68333
vt 0.23214 0.71800
vt 0.23214 0.78467
vt 0.43056 0.73611
vt 0.48611 0.73611
vt 0.48611 0.68056
vt 0.43056 0.68056
vt 0.42545 0.65000
vt 0.48214 0.61800
vt 0.48214 0.55133
vt 0.42545 0.51667
vt 0.26786 0.65000
vt 0.26786 0.51667
vt 0.43333 0.94167
vt 0.65000 0.51786
vt 0.65000 0.67545
vt 0.51667 0.67545
vt 0.51667 0.51786
vt 0.61800 0.73214
vt 0.55133 0.73214
vt 0.01562 0.96094
vt 0.01562 0.91406
vt 0.06250 0.89063
vt 0.10938 0.91406
vt 0.10938 0.96094
vt 0.06250 0.98438
vt 0.10938 0.64815
vt 0.06250 0.64815
vt 0.06250 0.35185
vt 0.10938 0.35185
vt 0.56481 0.34722
vt 0.56481 0.40278
vt 0.26852 0.40278
vt 0.26852 0.34722
vt 0.18750 0.64815
vt 0.23438 0.64815
vt 0.23438 0.35185
vt 0.18750 0.35185
vt 0.14063 0.35185
vt 0.14063 0.64815
vt 0.26852 0.48611
vt 0.56481 0.48611
vt 0.56481 0.43056
vt 0.26852 0.43056
vt 0.01562 0.64815
vt 0.01562 0.35185
vt 0.69271 0.91927
vt 0.69271 0.87240
vt 0.64583 0.84896
vt 0.59896 0.87240
vt 0.59896 0.91927
vt 0.64583 0.94271
vt 0.91403 0.01910
vt 0.84896 0.01910
vt 0.76389 0.65278
vt 0.76389 0.59722
vt 0.81944 0.59722
vt 0.81944 0.65278
vt 0.59896 0.48333
vt 0.59896 0.35000
vt 0.66403 0.35000
vt 0.69271 0.48333
vt 0.72396 0.07994
vt 0.72396 0.01944
vt 0.81771 0.01944
vt 0.81771 0.07994
vt 0.72396 0.26142
vt 0.81771 0.26142
vt 0.84896 0.43924
vt 0.90411 0.43924
vt 0.77911 0.32191
vt 0.72396 0.32191
vt 0.68056 0.77400
vt 0.69167 0.77400
vt 0.73611 0.60119
vt 0.68056 0.60119
vt 0.73499 0.50340
vt 0.72396 0.50340
vt 0.68866 0.31481
vt 0.67163 0.19441
vt 0.72396 0.56389
vt 0.68056 0.81548
vt 0.76667 0.72500
vt 0.76667 0.85833
vt 0.43333 0.78125
vt 0.43333 0.76042
vt 0.56667 0.76042
vt 0.56667 0.78125
vt 0.26667 0.67708
vt 0.26667 0.69792
vt 0.26667 0.85833
vt 0.26667 0.72500
vt 0.26667 0.85747
# 143 texture verticies
vn 0.98891 -0.00000 -0.14849
vn 0.91710 -0.00000 -0.39866
vn 1.00000 0.00000 0.00000
vn 0.99642 0.00000 0.08448
vn 0.98562 0.00000 0.16897
vn 0.00000 -1.00000 0.00000
vn 0.00000 -0.99668 0.08139
vn 0.00000 -0.98666 0.16277
vn 0.96782 0.00000 0.25163
vn 0.88018 -0.00000 -0.47464
vn 0.92986 -0.00000 -0.36792
vn 0.95774 0.01894 -0.28701
vn 0.96006 -0.02270 -0.27886
vn 0.95442 0.00255 -0.29845
vn 0.10079 -0.99491 0.00000
vn 0.15080 -0.98856 0.00000
vn 0.05039 -0.99873 0.00000
vn 0.79754 0.00000 0.60327
vn 0.19645 -0.00000 -0.98051
vn 0.29181 -0.00000 -0.95648
vn 0.09822 -0.00000 -0.99516
vn 0.29181 0.95648 -0.00000
vn 0.19645 0.98051 -0.00000
vn 0.09822 0.99516 -0.00000
vn 0.00000 -0.62834 0.77794
vn 0.00000 -0.98747 -0.15779
vn 0.00000 -0.94890 -0.31558
vn 0.00000 -0.88722 -0.46135
vn 0.00000 0.00000 1.00000
vn 0.65850 0.00000 0.75258
vn 0.98906 -0.00000 -0.14751
vn 0.95549 -0.00000 -0.29502
vn 0.90152 -0.00000 -0.43273
vn 0.00000 -0.00000 -1.00000
vn -0.94890 -0.00000 -0.31558
vn -0.88722 -0.00000 -0.46135
vn -0.98747 -0.00000 -0.15779
vn -1.00000 0.00000 0.00000
vn -0.62834 0.00000 0.77794
vn 0.00000 0.65850 0.75258
vn 0.00000 1.00000 -0.00000
vn 0.00000 0.95549 -0.29502
vn 0.00000 0.98906 -0.14751
vn 0.00000 0.90152 -0.43273
vn 0.50000 0.86603 -0.00000
vn 0.50000 -0.86603 0.00000
vn -0.50000 -0.86603 0.00000
vn -0.50000 0.86603 -0.00000
vn 0.00000 -0.97014 0.24254
vn 0.00000 0.31623 0.94868
vn 0.00000 0.97507 -0.22190
vn 0.00000 -0.44366 -0.89619
vn 0.00000 -0.89917 -0.43760
vn 0.96269 -0.06803 -0.26193
vn 0.94596 0.07568 -0.31532
vn 0.00000 0.70007 0.71407
vn 0.00000 -0.82137 0.57040
vn -0.99192 0.00000 0.12684
vn -0.95374 -0.00000 -0.30064
vn -0.95374 -0.00000 -0.30064
vn -0.99484 0.00000 0.10144
vn -0.96782 0.00000 0.25163
vn -0.92986 -0.00000 -0.36792
vn -0.88018 -0.00000 -0.47464
vn -0.96006 -0.02270 -0.27886
vn -0.95774 0.01894 -0.28701
vn -0.95442 0.00255 -0.29845
vn -0.15080 -0.98856 0.00000
vn -0.10079 -0.99491 0.00000
vn -0.05039 -0.99873 0.00000
vn -0.79754 0.00000 0.60327
vn -0.29181 -0.00000 -0.95648
vn -0.19645 -0.00000 -0.98051
vn -0.09822 -0.00000 -0.99516
vn -0.19645 0.98051 -0.00000
vn -0.29181 0.95648 -0.00000
vn -0.09822 0.99516 -0.00000
vn -0.65850 0.00000 0.75258
vn -0.95549 -0.00000 -0.29502
vn -0.98906 -0.00000 -0.14751
vn -0.90152 -0.00000 -0.43273
vn 0.88722 -0.00000 -0.46135
vn 0.94890 -0.00000 -0.31558
vn 0.98747 -0.00000 -0.15779
vn 0.62834 0.00000 0.77794
vn -0.96269 -0.06803 -0.26193
vn -0.94596 0.07568 -0.31532
# 87 normals
usemtl tank_user_body_11_1
f  6/1/1 7/2/2 5/3/3 4/4/4 3/5/5
f  56/6/6 6/7/6 3/8/7 52/9/8
f  3/5/5 4/4/4 2/10/9 1/11/9
f  8/12/10 9/13/11 7/2/2 6/1/1
f  11/14/12 10/15/13 9/13/11 8/12/10
f  10/15/13 11/14/12 13/16/14
f  18/17/15 17/18/16 16/19/16 15/20/17
f  16/21/18 20/22/18 19/23/18 15/24/18
f  17/25/3 21/26/3 20/22/3 16/21/3
f  22/27/19 21/28/20 17/29/20 18/30/21
f  20/31/22 21/32/22 22/33/23 19/34/24
f  30/35/25 25/36/25 24/37/25 23/38/25
f  29/39/26 26/40/27 25/41/6 30/42/6
f  28/43/28 27/44/28 26/40/27 29/39/26
f  24/37/29 32/45/29 31/46/29 23/38/29
f  25/36/30 33/47/30 32/45/30 24/37/30
f  26/48/31 34/49/32 33/50/3 25/51/3
f  27/52/33 35/53/33 34/49/32 26/48/31
f  36/54/34 35/55/34 27/56/34 28/57/34
f  37/58/35 36/59/36 28/60/36 29/61/37
f  38/62/38 37/58/35 29/61/37 30/63/38
f  31/46/39 38/64/39 30/35/39 23/38/39
f  32/45/40 33/47/40 38/64/40 31/46/40
f  33/65/41 34/66/42 37/67/43 38/68/41
f  34/66/42 35/69/44 36/70/44 37/67/43
f  44/71/29 43/72/29 42/73/29 41/74/29 40/75/29 39/76/29
f  46/77/45 45/78/45 39/79/45 40/80/45
f  47/81/3 46/82/3 40/83/3 41/84/3
f  48/85/46 47/86/46 41/87/46 42/88/46
f  43/89/47 49/90/47 48/85/47 42/88/47
f  44/91/38 50/92/38 49/93/38 43/94/38
f  39/79/48 45/78/48 50/95/48 44/96/48
f  46/97/34 47/98/34 48/99/34 49/100/34 50/101/34 45/102/34
f  1/103/49 51/104/49 52/9/8 3/8/7
f  53/105/29 51/106/29 1/107/29 2/108/29
f  54/109/41 53/110/41 2/111/41 4/112/41
f  55/113/50 54/114/50 4/115/50 5/116/50
f  57/117/51 55/113/41 5/116/41 7/118/51
f  58/119/52 8/120/52 6/7/52 56/6/52
f  9/121/42 59/122/43 57/117/51 7/118/51
f  60/123/53 11/124/53 8/125/53 58/126/53
f  10/127/41 61/128/41 59/122/43 9/121/42
f  10/15/13 13/16/14 12/129/54
f  11/14/12 14/130/55 13/16/14
f  12/131/56 61/128/56 10/127/56
f  60/123/57 14/132/57 11/124/57
f  15/20/17 62/133/6 63/134/6 18/17/15
f  64/135/29 62/136/29 15/137/29 19/138/29
f  18/30/21 63/139/34 65/140/34 22/27/19
f  65/141/41 64/142/41 19/34/24 22/33/23
f  69/4/58 70/3/38 72/2/59 71/1/60 68/5/61
f  68/8/7 71/7/6 56/6/6 52/9/8
f  67/10/62 69/4/58 68/5/61 66/11/62
f  72/2/59 74/13/63 73/12/64 71/1/60
f  74/13/63 75/15/65 76/14/66 73/12/64
f  76/14/66 75/15/65 78/16/67
f  81/19/68 82/18/68 83/17/69 80/20/70
f  84/23/71 85/22/71 81/21/71 80/24/71
f  85/22/38 86/26/38 82/25/38 81/21/38
f  82/29/72 86/28/72 87/27/73 83/30/74
f  87/33/75 86/32/76 85/31/76 84/34/77
f  89/37/25 90/36/25 95/35/25 88/38/25
f  90/41/6 91/40/27 94/39/26 95/42/6
f  91/40/27 92/44/28 93/43/28 94/39/26
f  96/46/29 97/45/29 89/37/29 88/38/29
f  97/45/78 98/47/78 90/36/78 89/37/78
f  98/50/38 99/49/79 91/48/80 90/51/38
f  99/49/79 100/53/81 92/52/81 91/48/80
f  92/56/34 100/55/34 101/54/34 93/57/34
f  93/60/82 101/59/82 102/58/83 94/61/84
f  94/61/84 102/58/83 103/62/3 95/63/3
f  95/35/85 103/64/85 96/46/85 88/38/85
f  103/64/40 98/47/40 97/45/40 96/46/40
f  102/67/43 99/66/42 98/65/41 103/68/41
f  101/70/44 100/69/44 99/66/42 102/67/43
f  105/75/29 106/74/29 107/73/29 108/72/29 109/71/29 104/76/29
f  104/79/48 110/78/48 111/77/48 105/80/48
f  105/83/38 111/82/38 112/81/38 106/84/38
f  106/87/47 112/86/47 113/85/47 107/88/47
f  113/85/46 114/90/46 108/89/46 107/88/46
f  114/93/3 115/92/3 109/91/3 108/94/3
f  115/95/45 110/78/45 104/79/45 109/96/45
f  115/101/34 114/100/34 113/99/34 112/98/34 111/97/34 110/102/34
f  52/9/8 51/104/49 66/103/49 68/8/7
f  66/107/29 51/106/29 53/105/29 67/108/29
f  67/111/41 53/110/41 54/109/41 69/112/41
f  69/115/50 54/114/50 55/113/50 70/116/50
f  70/116/41 55/113/41 57/117/51 72/118/51
f  71/7/52 73/120/52 58/119/52 56/6/52
f  57/117/51 59/122/43 74/121/42 72/118/51
f  73/125/53 76/124/53 60/123/53 58/126/53
f  59/122/43 61/128/41 75/127/41 74/121/42
f  78/16/67 75/15/65 77/129/86
f  79/130/87 76/14/66 78/16/67
f  61/128/56 77/131/56 75/127/56
f  79/132/57 60/123/57 76/124/57
f  117/134/6 116/133/6 80/20/70 83/17/69
f  80/137/29 116/136/29 118/135/29 84/138/29
f  119/140/34 117/139/34 83/30/74 87/27/73
f  84/34/77 118/142/41 119/143/41 87/33/75
