# 
# Wavefront OBJ file
# Converted by the DEEP Exploration Deep Exploration 5 5.0.2.1477 Release
# Right Hemisphere, LTD
# http://www.righthemisphere.com/
# 
mtllib tank_user_body_09.mtl
# object tank_user_body_09
g tank_user_body_09
v 1.40000 0.20000 1.40000
v 1.40000 0.20000 -1.40000
v 1.60000 1.00000 1.60000
v 1.60000 1.00000 -1.60000
v 1.20000 1.40000 1.20000
v 1.20000 1.40000 -1.20000
v 1.60000 0.40000 1.60000
v 1.60000 0.40000 -1.60000
v 2.09598 0.00000 1.56912
v 1.59598 0.00000 1.06912
v 1.09598 0.00000 1.56912
v 1.59598 0.00000 2.06912
v 1.94598 0.45649 1.54412
v 1.57098 0.45649 1.16912
v 1.19598 0.45649 1.54412
v 1.57098 0.45649 1.91912
v 0.00000 0.20000 1.40000
v 0.00000 0.20000 -1.40000
v 0.00000 1.00000 1.60000
v 0.00000 1.40000 1.20000
v 0.00000 1.00000 -1.60000
v 0.00000 1.40000 -1.20000
v 0.00000 0.40000 1.60000
v 0.00000 0.40000 -1.60000
v 2.09598 -0.00000 -1.56912
v 1.59598 -0.00000 -1.06912
v 1.09598 -0.00000 -1.56912
v 1.59598 -0.00000 -2.06912
v 1.94598 0.45649 -1.54412
v 1.57098 0.45649 -1.16912
v 1.19598 0.45649 -1.54412
v 1.57098 0.45649 -1.91912
v -1.40000 0.20000 1.40000
v -1.40000 0.20000 -1.40000
v -1.60000 1.00000 1.60000
v -1.60000 1.00000 -1.60000
v -1.20000 1.40000 1.20000
v -1.20000 1.40000 -1.20000
v -1.60000 0.40000 1.60000
v -1.60000 0.40000 -1.60000
v -2.09598 0.00000 1.56912
v -1.59598 0.00000 1.06912
v -1.09598 0.00000 1.56912
v -1.59598 0.00000 2.06912
v -1.94598 0.45649 1.54412
v -1.57098 0.45649 1.16912
v -1.19598 0.45649 1.54412
v -1.57098 0.45649 1.91912
v -2.09598 -0.00000 -1.56912
v -1.59598 -0.00000 -1.06912
v -1.09598 -0.00000 -1.56912
v -1.59598 -0.00000 -2.06912
v -1.94598 0.45649 -1.54412
v -1.57098 0.45649 -1.16912
v -1.19598 0.45649 -1.54412
v -1.57098 0.45649 -1.91912
# 56 verticies
vt 0.56136 0.10649
vt 0.49299 0.16883
vt 0.08277 0.16883
vt 0.01439 0.10649
vt 0.01439 0.01299
vt 0.56136 0.01299
vt 0.83058 0.52718
vt 0.86501 0.56136
vt 0.86501 0.01439
vt 0.83058 0.04858
vt 0.89091 0.28485
vt 0.89091 0.38182
vt 0.98788 0.38182
vt 0.98788 0.28485
vt 0.98788 0.01136
vt 0.98061 0.07955
vt 0.90788 0.07955
vt 0.89091 0.01136
vt 0.90303 0.17045
vt 0.97576 0.17045
vt 0.98788 0.10227
vt 0.89091 0.10227
vt 0.90788 0.26136
vt 0.98061 0.26136
vt 0.98788 0.19318
vt 0.89091 0.19318
vt 0.98788 0.40606
vt 0.97576 0.42441
vt 0.90303 0.42441
vt 0.89091 0.40606
vt 0.97576 0.50303
vt 0.90303 0.50303
vt 0.58953 0.04858
vt 0.58953 0.52718
vt 0.43251 0.53247
vt 0.22590 0.53247
vt 0.22590 0.47013
vt 0.50138 0.47013
vt 0.22590 0.35065
vt 0.43251 0.35065
vt 0.50138 0.28831
vt 0.22590 0.28831
vt 0.01326 0.59192
vt 0.01326 0.19596
vt 0.19886 0.19596
vt 0.19886 0.59192
vt 0.22590 0.37662
vt 0.50138 0.37662
vt 0.58953 0.01439
vt 0.50138 0.19481
vt 0.22590 0.19481
vt 0.58953 0.56136
vt 0.97576 0.50000
# 53 texture verticies
vn 0.70711 0.70711 -0.00000
vn 1.00000 0.00000 0.00000
vn 0.70711 -0.70711 0.00000
vn 0.00000 -1.00000 0.00000
vn 0.69421 0.19009 -0.69421
vn 0.69421 0.19009 -0.69421
vn 0.69421 0.19009 -0.69421
vn -0.70238 0.11540 -0.70238
vn -0.70238 0.11540 -0.70238
vn -0.70238 0.11540 -0.70238
vn -0.69421 0.19009 0.69421
vn -0.69421 0.19009 0.69421
vn -0.69421 0.19009 0.69421
vn 0.68248 0.26163 0.68248
vn 0.00000 1.00000 -0.00000
vn 0.00000 0.70711 0.70711
vn 0.00000 0.70711 -0.70711
vn 0.00000 0.00000 1.00000
vn 0.00000 -0.70711 0.70711
vn 0.00000 -0.00000 -1.00000
vn 0.00000 -0.70711 -0.70711
vn 0.69421 0.19009 0.69421
vn 0.69421 0.19009 0.69421
vn 0.69421 0.19009 0.69421
vn -0.70238 0.11540 0.70238
vn -0.70238 0.11540 0.70238
vn -0.70238 0.11540 0.70238
vn -0.69421 0.19009 -0.69421
vn -0.69421 0.19009 -0.69421
vn -0.69421 0.19009 -0.69421
vn 0.68248 0.26163 -0.68248
vn -0.70711 0.70711 -0.00000
vn -1.00000 0.00000 0.00000
vn -0.70711 -0.70711 0.00000
vn -0.69421 0.19009 -0.69421
vn -0.69421 0.19009 -0.69421
vn -0.69421 0.19009 -0.69421
vn 0.70238 0.11540 -0.70238
vn 0.70238 0.11540 -0.70238
vn 0.70238 0.11540 -0.70238
vn 0.69421 0.19009 0.69421
vn 0.69421 0.19009 0.69421
vn 0.69421 0.19009 0.69421
vn -0.68248 0.26163 0.68248
vn -0.69421 0.19009 0.69421
vn -0.69421 0.19009 0.69421
vn -0.69421 0.19009 0.69421
vn 0.70238 0.11540 0.70238
vn 0.70238 0.11540 0.70238
vn 0.70238 0.11540 0.70238
vn 0.69421 0.19009 -0.69421
vn 0.69421 0.19009 -0.69421
vn 0.69421 0.19009 -0.69421
vn -0.68248 0.26163 -0.68248
# 54 normals
usemtl tank_user_body_09
f  4/1/1 6/2/1 5/3/1 3/4/1
f  3/4/2 7/5/2 8/6/2 4/1/2
f  2/7/3 8/8/3 7/9/3 1/10/3
f  12/11/4 11/12/4 10/13/4 9/14/4
f  10/15/5 14/16/6 13/17/5 9/18/7
f  15/19/8 14/20/9 10/21/8 11/22/10
f  16/23/11 15/24/12 11/25/11 12/26/13
f  9/27/14 13/28/14 16/29/14 12/30/14
f  14/31/15 15/32/15 16/29/15 13/28/15
f  1/10/4 17/33/4 18/34/4 2/7/4
f  5/35/16 20/36/16 19/37/16 3/38/16
f  22/39/17 6/40/17 4/41/17 21/42/17
f  22/43/15 20/44/15 5/45/15 6/46/15
f  3/38/18 19/37/18 23/47/18 7/48/18
f  23/49/19 17/33/19 1/10/19 7/9/19
f  8/50/20 24/51/20 21/42/20 4/41/20
f  2/7/21 18/34/21 24/52/21 8/8/21
f  26/13/4 27/12/4 28/11/4 25/14/4
f  29/17/22 30/16/23 26/15/22 25/18/24
f  26/21/25 30/20/26 31/19/25 27/22/27
f  27/25/28 31/24/29 32/23/28 28/26/30
f  32/29/31 29/28/31 25/27/31 28/30/31
f  32/29/15 31/32/15 30/31/15 29/28/15
f  37/3/32 38/2/32 36/1/32 35/4/32
f  40/6/33 39/5/33 35/4/33 36/1/33
f  39/9/34 40/8/34 34/7/34 33/10/34
f  42/13/4 43/12/4 44/11/4 41/14/4
f  45/17/35 46/16/36 42/15/35 41/18/37
f  42/21/38 46/20/39 47/19/38 43/22/40
f  43/25/41 47/24/42 48/23/41 44/26/43
f  48/29/44 45/28/44 41/27/44 44/30/44
f  48/29/15 47/32/15 46/31/15 45/28/15
f  18/34/4 17/33/4 33/10/4 34/7/4
f  19/37/16 20/36/16 37/35/16 35/38/16
f  36/41/17 38/40/17 22/39/17 21/42/17
f  37/45/15 20/44/15 22/43/15 38/46/15
f  23/47/18 19/37/18 35/38/18 39/48/18
f  33/10/19 17/33/19 23/49/19 39/9/19
f  21/42/20 24/51/20 40/50/20 36/41/20
f  24/52/21 18/34/21 34/7/21 40/8/21
f  52/11/4 51/12/4 50/13/4 49/14/4
f  50/15/45 54/16/46 53/17/45 49/18/47
f  55/19/48 54/20/49 50/21/48 51/22/50
f  56/23/51 55/24/52 51/25/51 52/26/53
f  49/27/54 53/28/54 56/29/54 52/30/54
f  54/53/15 55/32/15 56/29/15 53/28/15
