# 
# Wavefront OBJ file
# Converted by the DEEP Exploration Deep Exploration 5 5.0.2.1477 Release
# Right Hemisphere, LTD
# http://www.righthemisphere.com/
# 
mtllib garageroom.mtl
# object garageroom
g garageroom
v -20.00000 0.00000 12.00000
v 20.00000 0.00000 12.00000
v 20.00000 -0.00000 -8.00000
v -20.00000 -0.00000 -8.00000
v -20.00000 15.00000 12.00000
v 20.00000 15.00000 12.00000
v 20.00000 15.00000 -8.00000
v -20.00000 15.00000 -8.00000
# 8 verticies
vt 0.73427 0.03205
vt 0.73427 0.35256
vt 0.03497 0.35256
vt 0.03497 0.03205
vt 0.41667 0.96923
vt 0.73718 0.96923
vt 0.73718 0.72308
vt 0.41667 0.72308
vt 0.73427 0.41538
vt 0.73427 0.66154
vt 0.03497 0.66154
vt 0.03497 0.41538
vt 0.35256 0.72437
vt 0.35256 0.96923
vt 0.03205 0.96923
vt 0.03205 0.72308
# 16 texture verticies
vn 0.00000 1.00000 -0.00000
vn -1.00000 0.00000 0.00000
vn 0.00000 0.00000 1.00000
vn 1.00000 0.00000 0.00000
# 4 normals
usemtl garageroom
f  2/1/1 3/2/1 4/3/1 1/4/1
f  6/5/2 7/6/2 3/7/2 2/8/2
f  3/9/3 7/10/3 8/11/3 4/12/3
f  4/13/4 8/14/4 5/15/4 1/16/4
