# 
# Wavefront OBJ file
# Converted by the DEEP Exploration Deep Exploration 5 5.0.2.1477 Release
# Right Hemisphere, LTD
# http://www.righthemisphere.com/
# 
mtllib all_barrel_1.mtl
# object all_barrel_1
g all_barrel_1
v 1.50000 0.05000 -0.00000
v 0.75000 0.05000 -1.29904
v -0.75000 0.05000 -1.29904
v -1.50000 0.05000 -0.00000
v -0.75000 0.05000 1.29904
v 0.75000 0.05000 1.29904
v 1.50000 3.05000 -0.00000
v 0.75000 3.05000 -1.29904
v -0.75000 3.05000 -1.29904
v -1.50000 3.05000 -0.00000
v -0.75000 3.05000 1.29904
v 0.75000 3.05000 1.29904
v 1.55000 -0.00000 0.00000
v 0.77500 -0.00000 -1.34234
v -0.77500 -0.00000 -1.34234
v -1.55000 -0.00000 0.00000
v -0.77500 -0.00000 1.34234
v 0.77500 -0.00000 1.34234
v 1.55000 0.50000 -0.00000
v 0.77500 0.50000 -1.34234
v -0.77500 0.50000 -1.34234
v -1.55000 0.50000 -0.00000
v -0.77500 0.50000 1.34234
v 0.77500 0.50000 1.34234
v 1.55000 2.60000 -0.00000
v 0.77500 2.60000 -1.34234
v -0.77500 2.60000 -1.34234
v -1.55000 2.60000 -0.00000
v -0.77500 2.60000 1.34234
v 0.77500 2.60000 1.34234
v 1.55000 3.10000 -0.00000
v 0.77500 3.10000 -1.34234
v -0.77500 3.10000 -1.34234
v -1.55000 3.10000 -0.00000
v -0.77500 3.10000 1.34234
v 0.77500 3.10000 1.34234
v 1.55000 1.30000 -0.00000
v 0.77500 1.30000 -1.34234
v -0.77500 1.30000 -1.34234
v -1.55000 1.30000 -0.00000
v -0.77500 1.30000 1.34234
v 0.77500 1.30000 1.34234
v 1.55000 1.80000 -0.00000
v 0.77500 1.80000 -1.34234
v -0.77500 1.80000 -1.34234
v -1.55000 1.80000 -0.00000
v -0.77500 1.80000 1.34234
v 0.77500 1.80000 1.34234
# 48 verticies
vt 0.26531 0.59184
vt 0.26531 0.83673
vt 0.14286 0.83673
vt 0.14286 0.59184
vt 0.87500 0.26531
vt 0.98214 0.26531
vt 0.98214 0.02041
vt 0.87500 0.02041
vt 0.42857 0.83673
vt 0.55102 0.83673
vt 0.55102 0.59184
vt 0.42857 0.59184
vt 0.30612 0.83673
vt 0.30612 0.59184
vt 0.98214 0.55102
vt 0.87500 0.55102
vt 0.87500 0.30612
vt 0.98214 0.30612
vt 0.02041 0.83673
vt 0.02041 0.59184
vt 0.48980 0.30612
vt 0.36735 0.30612
vt 0.30612 0.42857
vt 0.36735 0.55102
vt 0.48980 0.55102
vt 0.55102 0.42857
vt 0.83673 0.72619
vt 0.83673 0.75000
vt 0.71429 0.75000
vt 0.71429 0.72619
vt 0.87500 0.65476
vt 0.98214 0.65476
vt 0.98214 0.63095
vt 0.87500 0.63095
vt 0.71429 0.65476
vt 0.83673 0.65476
vt 0.83673 0.63095
vt 0.71429 0.63095
vt 0.59184 0.65476
vt 0.59184 0.63095
vt 0.98214 0.84524
vt 0.87500 0.84524
vt 0.87500 0.82143
vt 0.98214 0.82143
vt 0.59184 0.75000
vt 0.59184 0.72619
vt 0.20408 0.26531
vt 0.08163 0.26531
vt 0.02041 0.14286
vt 0.08163 0.02041
vt 0.20408 0.02041
vt 0.26531 0.14286
vt 0.77551 0.02041
vt 0.65306 0.02041
vt 0.59184 0.14286
vt 0.65306 0.26531
vt 0.77551 0.26531
vt 0.83673 0.14286
vt 0.83673 0.77381
vt 0.83673 0.79762
vt 0.71429 0.79762
vt 0.71429 0.77381
vt 0.87500 0.60714
vt 0.98214 0.60714
vt 0.98214 0.58333
vt 0.87500 0.58333
vt 0.71429 0.70238
vt 0.83673 0.70238
vt 0.83673 0.67857
vt 0.71429 0.67857
vt 0.59184 0.70238
vt 0.59184 0.67857
vt 0.98214 0.70238
vt 0.87500 0.70238
vt 0.87500 0.67857
vt 0.98214 0.67857
vt 0.59184 0.79762
vt 0.59184 0.77381
vt 0.48980 0.26531
vt 0.36735 0.26531
vt 0.30612 0.14286
vt 0.36735 0.02041
vt 0.48980 0.02041
vt 0.55102 0.14286
vt 0.20408 0.30612
vt 0.08163 0.30612
vt 0.02041 0.42857
vt 0.08163 0.55102
vt 0.20408 0.55102
vt 0.26531 0.42857
vt 0.83673 0.82143
vt 0.83673 0.84524
vt 0.71429 0.84524
vt 0.71429 0.82143
vt 0.87500 0.75000
vt 0.98214 0.75000
vt 0.98214 0.72619
vt 0.87500 0.72619
vt 0.71429 0.60714
vt 0.83673 0.60714
vt 0.83673 0.58333
vt 0.71429 0.58333
vt 0.59184 0.60714
vt 0.59184 0.58333
vt 0.98214 0.79762
vt 0.87500 0.79762
vt 0.87500 0.77381
vt 0.98214 0.77381
vt 0.71429 0.82031
vt 0.59184 0.84524
vt 0.59184 0.82143
vt 0.77551 0.55102
vt 0.65306 0.55102
vt 0.59184 0.42857
vt 0.65306 0.30612
vt 0.77551 0.30612
vt 0.83673 0.42857
# 117 texture verticies
vn 0.86603 -0.00000 -0.50000
vn 0.00000 -0.00000 -1.00000
vn -0.86603 -0.00000 -0.50000
vn -0.86603 0.00000 0.50000
vn 0.00000 0.00000 1.00000
vn 0.86603 0.00000 0.50000
vn 0.00000 -1.00000 0.00000
vn 0.86603 -0.00000 -0.50000
vn -0.86603 -0.00000 -0.50000
vn -0.86603 0.00000 0.50000
vn 0.86603 0.00000 0.50000
vn 0.00000 1.00000 -0.00000
# 12 normals
usemtl all_barrel_1
f  2/1/1 8/2/1 7/3/1 1/4/1
f  9/5/2 8/6/2 2/7/2 3/8/2
f  10/9/3 9/10/3 3/11/3 4/12/3
f  11/13/4 10/9/4 4/12/4 5/14/4
f  12/15/5 11/16/5 5/17/5 6/18/5
f  1/4/6 7/3/6 12/19/6 6/20/6
f  18/21/7 17/22/7 16/23/7 15/24/7 14/25/7 13/26/7
f  14/27/8 20/28/8 19/29/8 13/30/8
f  21/31/2 20/32/2 14/33/2 15/34/2
f  22/35/9 21/36/9 15/37/9 16/38/9
f  23/39/10 22/35/10 16/38/10 17/40/10
f  24/41/5 23/42/5 17/43/5 18/44/5
f  13/30/11 19/29/11 24/45/11 18/46/11
f  20/47/12 21/48/12 22/49/12 23/50/12 24/51/12 19/52/12
f  30/53/7 29/54/7 28/55/7 27/56/7 26/57/7 25/58/7
f  26/59/8 32/60/8 31/61/8 25/62/8
f  33/63/2 32/64/2 26/65/2 27/66/2
f  34/67/9 33/68/9 27/69/9 28/70/9
f  35/71/10 34/67/10 28/70/10 29/72/10
f  36/73/5 35/74/5 29/75/5 30/76/5
f  25/62/11 31/61/11 36/77/11 30/78/11
f  32/79/12 33/80/12 34/81/12 35/82/12 36/83/12 31/84/12
f  42/85/7 41/86/7 40/87/7 39/88/7 38/89/7 37/90/7
f  38/91/8 44/92/8 43/93/8 37/94/8
f  45/95/2 44/96/2 38/97/2 39/98/2
f  46/99/9 45/100/9 39/101/9 40/102/9
f  47/103/10 46/99/10 40/102/10 41/104/10
f  48/105/5 47/106/5 41/107/5 42/108/5
f  37/109/11 43/93/11 48/110/11 42/111/11
f  44/112/12 45/113/12 46/114/12 47/115/12 48/116/12 43/117/12
