# 
# Wavefront OBJ file
# Converted by the DEEP Exploration Deep Exploration 5 5.0.2.1477 Release
# Right Hemisphere, LTD
# http://www.righthemisphere.com/
# 
mtllib hp.mtl
# object hp
g hp
v -2.00000 1.40000 0.60000
v -2.00000 1.40000 -0.60000
v -2.00000 2.60000 -0.60000
v -2.00000 2.60000 0.60000
v 2.00000 1.40000 0.60000
v 2.00000 2.60000 0.60000
v 2.00000 2.60000 -0.60000
v 2.00000 1.40000 -0.60000
v -0.60000 4.00000 0.60000
v -0.60000 4.00000 -0.60000
v 0.60000 4.00000 -0.60000
v 0.60000 4.00000 0.60000
v -0.60000 0.00000 0.60000
v 0.60000 0.00000 0.60000
v 0.60000 0.00000 -0.60000
v -0.60000 0.00000 -0.60000
v -0.60000 1.40000 0.60000
v -0.60000 1.40000 -0.60000
v 0.60000 1.40000 0.60000
v 0.60000 1.40000 -0.60000
v -0.60000 2.60000 0.60000
v -0.60000 2.60000 -0.60000
v 0.60000 2.60000 0.60000
v 0.60000 2.60000 -0.60000
# 24 verticies
vt 0.71750 0.15750
vt 0.71750 0.28000
vt 0.59500 0.28000
vt 0.59500 0.15750
vt 0.15750 0.28000
vt 0.28000 0.28000
vt 0.28000 0.15750
vt 0.15750 0.15750
vt 0.45208 0.28000
vt 0.45208 0.15750
vt 0.13802 0.45000
vt 0.13802 0.55000
vt 0.26823 0.55000
vt 0.26823 0.45000
vt 0.01458 0.15750
vt 0.01458 0.28000
vt 0.73698 0.55000
vt 0.60677 0.55000
vt 0.60677 0.45000
vt 0.73698 0.45000
vt 0.26250 0.67500
vt 0.36250 0.67500
vt 0.36250 0.57500
vt 0.26250 0.57500
vt 0.45052 0.55000
vt 0.58073 0.55000
vt 0.58073 0.45000
vt 0.45052 0.45000
vt 0.86042 0.15750
vt 0.86042 0.28000
vt 0.42448 0.45000
vt 0.42448 0.55000
vt 0.29427 0.55000
vt 0.29427 0.45000
vt 0.42292 0.28000
vt 0.42292 0.15750
vt 0.86250 0.45000
vt 0.86250 0.55000
vt 0.76250 0.55000
vt 0.76250 0.45000
vt 0.71750 0.42292
vt 0.59500 0.42292
vt 0.88750 0.29948
vt 0.98750 0.29948
vt 0.98750 0.16927
vt 0.88750 0.16927
vt 0.15750 0.42292
vt 0.28000 0.42292
vt 0.98750 0.01302
vt 0.98750 0.14323
vt 0.88750 0.14323
vt 0.88750 0.01302
vt 0.23750 0.57500
vt 0.23750 0.67500
vt 0.13750 0.67500
vt 0.13750 0.57500
vt 0.88750 0.45573
vt 0.98750 0.45573
vt 0.98750 0.32552
vt 0.88750 0.32552
vt 0.71750 0.01458
vt 0.59500 0.01458
vt 0.11250 0.45052
vt 0.11250 0.58073
vt 0.01250 0.58073
vt 0.01250 0.45052
vt 0.15750 0.01458
vt 0.28000 0.01458
vt 0.88750 0.57813
vt 0.98750 0.58125
vt 0.98750 0.48125
vt 0.88750 0.48125
# 72 texture verticies
vn 0.00000 0.00000 1.00000
vn 0.00000 -0.00000 -1.00000
vn 0.00000 -1.00000 0.00000
vn 0.00000 1.00000 -0.00000
vn -1.00000 0.00000 0.00000
vn 1.00000 0.00000 0.00000
# 6 normals
usemtl hp
f  19/1/1 23/2/1 21/3/1 17/4/1
f  22/5/2 24/6/2 20/7/2 18/8/2
f  21/3/1 4/9/1 1/10/1 17/4/1
f  1/11/3 2/12/3 18/13/3 17/14/3
f  2/15/2 3/16/2 22/5/2 18/8/2
f  22/17/4 3/18/4 4/19/4 21/20/4
f  4/21/5 3/22/5 2/23/5 1/24/5
f  20/25/3 8/26/3 5/27/3 19/28/3
f  5/29/1 6/30/1 23/2/1 19/1/1
f  6/31/4 7/32/4 24/33/4 23/34/4
f  24/6/2 7/35/2 8/36/2 20/7/2
f  8/37/6 7/38/6 6/39/6 5/40/6
f  23/2/1 12/41/1 9/42/1 21/3/1
f  9/43/5 10/44/5 22/45/5 21/46/5
f  22/5/2 10/47/2 11/48/2 24/6/2
f  24/49/6 11/50/6 12/51/6 23/52/6
f  12/53/4 11/54/4 10/55/4 9/56/4
f  17/57/5 18/58/5 16/59/5 13/60/5
f  14/61/1 19/1/1 17/4/1 13/62/1
f  15/63/6 20/64/6 19/65/6 14/66/6
f  16/67/2 18/8/2 20/7/2 15/68/2
f  16/69/3 15/70/3 14/71/3 13/72/3
