# 
# Wavefront OBJ file
# Converted by the DEEP Exploration Deep Exploration 5 5.0.2.1477 Release
# Right Hemisphere, LTD
# http://www.righthemisphere.com/
# 
mtllib warehouse_1.mtl
# object warehouse_1
g warehouse_1
v 0.00000 1.50000 2.50000
v 0.75000 1.29904 2.50000
v 1.29904 0.75000 2.50000
v 1.50000 0.00000 2.50000
v -1.50000 0.00000 2.50000
v -1.29904 0.75000 2.50000
v -0.75000 1.29904 2.50000
v 0.00000 1.50000 -2.50000
v 0.75000 1.29904 -2.50000
v 1.29904 0.75000 -2.50000
v 1.50000 -0.00000 -2.50000
v -1.50000 -0.00000 -2.50000
v -1.29904 0.75000 -2.50000
v -0.75000 1.29904 -2.50000
# 14 verticies
vt 0.35714 0.79545
vt 0.25000 0.79545
vt 0.25000 0.03788
vt 0.35714 0.03788
vt 0.43558 0.79545
vt 0.43558 0.03788
vt 0.14286 0.03788
vt 0.14286 0.79545
vt 0.06442 0.79545
vt 0.06442 0.03788
vt 0.93558 0.12500
vt 0.85714 0.19363
vt 0.75000 0.21875
vt 0.64286 0.19363
vt 0.56442 0.12500
vt 0.53571 0.03125
vt 0.96429 0.03125
vt 0.46429 0.03788
vt 0.46429 0.79545
vt 0.03571 0.79545
vt 0.03571 0.03788
vt 0.56442 0.37500
vt 0.64286 0.44363
vt 0.75000 0.46875
vt 0.85714 0.44363
vt 0.93558 0.37500
vt 0.96429 0.28125
vt 0.53571 0.28125
# 28 texture verticies
vn 0.42097 0.90707 -0.00000
vn 0.00000 1.00000 -0.00000
vn 0.57506 0.81811 -0.00000
vn 0.81811 0.57506 -0.00000
vn 0.90707 0.42097 -0.00000
vn -0.57506 0.81811 -0.00000
vn -0.42097 0.90707 -0.00000
vn -0.81811 0.57506 -0.00000
vn -0.90707 0.42097 -0.00000
vn 0.00000 0.00000 1.00000
vn 0.96593 0.25882 -0.00000
vn -0.96593 0.25882 -0.00000
vn 0.00000 -0.00000 -1.00000
# 13 normals
usemtl warehouse_1
f  9/1/1 8/2/2 1/3/2 2/4/3
f  10/5/4 9/1/1 2/4/3 3/6/5
f  7/7/6 14/8/7 13/9/8 6/10/9
f  1/3/2 8/2/2 14/8/7 7/7/6
f  3/11/10 2/12/10 1/13/10 7/14/10 6/15/10 5/16/10 4/17/10
f  3/6/5 4/18/11 11/19/11 10/5/4
f  12/20/12 5/21/12 6/10/9 13/9/8
f  13/22/13 14/23/13 8/24/13 9/25/13 10/26/13 11/27/13 12/28/13
