# 
# Wavefront OBJ file
# Converted by the DEEP Exploration Deep Exploration 5 5.0.2.1477 Release
# Right Hemisphere, LTD
# http://www.righthemisphere.com/
# 
mtllib Effects_CrossBox.mtl
# object Effects_CrossBox
g Effects_CrossBox
v -0.20000 0.20000 -0.60000
v -0.20000 -0.20000 -0.60000
v 0.20000 -0.20000 -0.60000
v 0.20000 0.20000 -0.60000
v -0.20000 0.20000 0.60000
v -0.20000 -0.20000 0.60000
v 0.20000 -0.20000 0.60000
v 0.20000 0.20000 0.60000
v -0.20000 -0.60000 0.20000
v 0.20000 -0.60000 0.20000
v 0.20000 -0.60000 -0.20000
v -0.20000 -0.60000 -0.20000
v -0.20000 0.60000 0.20000
v 0.20000 0.60000 0.20000
v 0.20000 0.60000 -0.20000
v -0.20000 0.60000 -0.20000
v -0.60000 0.20000 0.20000
v -0.60000 -0.20000 0.20000
v -0.60000 -0.20000 -0.20000
v -0.60000 0.20000 -0.20000
v 0.60000 0.20000 0.20000
v 0.60000 -0.20000 0.20000
v 0.60000 -0.20000 -0.20000
v 0.60000 0.20000 -0.20000
# 24 verticies
vn 0.00000 -0.00000 -1.00000
vn -1.00000 0.00000 0.00000
vn 0.00000 -1.00000 0.00000
vn 1.00000 0.00000 0.00000
vn 0.00000 1.00000 -0.00000
vn 0.00000 0.00000 1.00000
# 6 normals
usemtl Effects_CrossBox
f  4//1 3//1 2//1 1//1
f  2//2 6//2 5//2 1//2
f  3//3 7//3 6//3 2//3
f  8//4 7//4 3//4 4//4
f  5//5 8//5 4//5 1//5
f  6//6 7//6 8//6 5//6
f  12//3 11//3 10//3 9//3
f  10//6 14//6 13//6 9//6
f  11//4 15//4 14//4 10//4
f  16//1 15//1 11//1 12//1
f  13//2 16//2 12//2 9//2
f  14//5 15//5 16//5 13//5
f  20//2 19//2 18//2 17//2
f  18//6 22//6 21//6 17//6
f  19//3 23//3 22//3 18//3
f  24//1 23//1 19//1 20//1
f  21//5 24//5 20//5 17//5
f  22//4 23//4 24//4 21//4
