# 
# Wavefront OBJ file
# Converted by the DEEP Exploration Deep Exploration 5 5.0.2.1477 Release
# Right Hemisphere, LTD
# http://www.righthemisphere.com/
# 
mtllib Effects_Circle.mtl
# object Effects_Circle
g Effects_Circle
v 0.80000 0.10000 -0.00000
v 0.80000 -0.10000 0.00000
v 0.40000 0.10000 -0.69282
v 0.40000 -0.10000 -0.69282
v -0.40000 0.10000 -0.69282
v -0.40000 -0.10000 -0.69282
v -0.80000 0.10000 -0.00000
v -0.80000 -0.10000 0.00000
v -0.40000 0.10000 0.69282
v -0.40000 -0.10000 0.69282
v 0.40000 0.10000 0.69282
v 0.40000 -0.10000 0.69282
v -1.00000 0.00000 -0.00000
v -0.50000 0.00000 0.86603
v 0.50000 0.00000 0.86603
v 1.00000 0.00000 0.00000
v 0.50000 -0.00000 -0.86603
v -0.50000 -0.00000 -0.86603
# 18 verticies
vn -0.86603 0.00000 0.50000
vn 0.29704 0.89113 -0.34300
vn 0.14852 0.89113 -0.42875
vn 0.44557 0.89113 -0.08575
vn 0.44557 0.89113 0.08575
vn 0.44557 -0.89113 -0.08575
vn 0.14852 -0.89113 -0.42875
vn 0.29704 -0.89113 -0.34300
vn 0.44557 -0.89113 0.08575
vn 0.00000 0.00000 1.00000
vn -0.14852 0.89113 -0.42875
vn -0.29704 0.89113 -0.34300
vn -0.14852 -0.89113 -0.42875
vn -0.29704 -0.89113 -0.34300
vn 0.86603 0.00000 0.50000
vn -0.44721 0.89443 -0.00000
vn -0.44721 -0.89443 0.00000
vn -0.44721 -0.89443 0.00000
vn 0.86603 -0.00000 -0.50000
vn -0.29704 0.89113 0.34300
vn -0.14852 0.89113 0.42875
vn -0.29704 -0.89113 0.34300
vn -0.14852 -0.89113 0.42875
vn 0.00000 -0.00000 -1.00000
vn 0.22361 0.89443 0.38730
vn 0.22361 -0.89443 0.38730
vn -0.86603 -0.00000 -0.50000
# 27 normals
usemtl Effects_Circle
f  1//1 3//1 4//1 2//1
f  17//2 3//3 1//4 16//5
f  2//6 4//7 17//8 16//9
f  4//10 3//10 5//10 6//10
f  3//3 17//2 18//11 5//12
f  18//13 17//8 4//7 6//14
f  6//15 5//15 7//15 8//15
f  5//12 18//11 13//16 7//16
f  13//17 18//13 6//14 8//18
f  8//19 7//19 9//19 10//19
f  9//20 7//16 13//16 14//21
f  13//17 8//18 10//22 14//23
f  10//24 9//24 11//24 12//24
f  11//25 9//20 14//21 15//25
f  14//23 10//22 12//26 15//26
f  11//27 1//27 2//27 12//27
f  16//5 1//4 11//25 15//25
f  12//26 2//6 16//9 15//26
