# 
# Wavefront OBJ file
# Converted by the DEEP Exploration Deep Exploration 5 5.0.2.1477 Release
# Right Hemisphere, LTD
# http://www.righthemisphere.com/
# 
mtllib bullets.mtl
# object bullets
g bullets
v 0.64000 0.00000 0.00000
v 0.32000 -0.00000 -0.55426
v -0.32000 -0.00000 -0.55426
v -0.64000 0.00000 0.00000
v -0.32000 0.00000 0.55426
v 0.32000 0.00000 0.55426
v 0.80000 0.20000 -0.00000
v 0.40000 0.20000 -0.69282
v -0.40000 0.20000 -0.69282
v -0.80000 0.20000 -0.00000
v -0.40000 0.20000 0.69282
v 0.40000 0.20000 0.69282
v 0.80000 1.80000 -0.00000
v 0.40000 1.80000 -0.69282
v -0.40000 1.80000 -0.69282
v -0.80000 1.80000 -0.00000
v -0.40000 1.80000 0.69282
v 0.40000 1.80000 0.69282
v 0.64000 2.00000 -0.00000
v 0.32000 2.00000 -0.55426
v -0.32000 2.00000 -0.55426
v -0.64000 2.00000 -0.00000
v -0.32000 2.00000 0.55426
v 0.32000 2.00000 0.55426
# 24 verticies
vt 0.90885 0.52604
vt 0.77865 0.52604
vt 0.71354 0.65625
vt 0.77865 0.78646
vt 0.90885 0.78646
vt 0.97396 0.65625
vt 0.56607 0.02778
vt 0.59821 0.07222
vt 0.43750 0.07222
vt 0.43750 0.02778
vt 0.02500 0.07222
vt 0.22500 0.07222
vt 0.20500 0.02778
vt 0.04500 0.02778
vt 0.18750 0.57222
vt 0.34821 0.57222
vt 0.31607 0.52778
vt 0.18750 0.52778
vt 0.02679 0.57222
vt 0.05893 0.52778
vt 0.85000 0.07222
vt 0.65000 0.07222
vt 0.67000 0.02778
vt 0.83000 0.02778
vt 0.27679 0.07222
vt 0.30893 0.02778
vt 0.59821 0.42778
vt 0.43750 0.42778
vt 0.02500 0.42778
vt 0.22500 0.42778
vt 0.18750 0.92778
vt 0.34821 0.92778
vt 0.02679 0.92778
vt 0.85000 0.42778
vt 0.65000 0.42778
vt 0.27679 0.42778
vt 0.56607 0.47222
vt 0.43750 0.47222
vt 0.04500 0.47222
vt 0.20500 0.47222
vt 0.18750 0.97222
vt 0.31607 0.97222
vt 0.05893 0.97222
vt 0.83000 0.47222
vt 0.67000 0.47222
vt 0.30893 0.47222
vt 0.59635 0.78516
vt 0.46615 0.78646
vt 0.40104 0.65625
vt 0.46615 0.52604
vt 0.59635 0.52604
vt 0.66146 0.65625
# 52 texture verticies
vn 0.00000 -1.00000 0.00000
vn 0.71187 -0.56949 -0.41100
vn 0.84891 -0.19782 -0.49012
vn 0.79536 -0.39564 -0.45920
vn 0.00000 -0.39564 -0.91841
vn 0.00000 -0.19782 -0.98024
vn 0.00000 -0.56949 -0.82199
vn -0.79536 -0.39564 -0.45920
vn -0.84891 -0.19782 -0.49012
vn -0.71187 -0.56949 -0.41100
vn -0.79536 -0.39564 0.45920
vn -0.84891 -0.19782 0.49012
vn -0.71187 -0.56949 0.41100
vn -0.71187 -0.56949 0.41100
vn 0.00000 -0.39564 0.91841
vn 0.00000 -0.19782 0.98024
vn 0.00000 -0.56949 0.82199
vn 0.71187 -0.56949 0.41100
vn 0.84891 -0.19782 0.49012
vn 0.79536 -0.39564 0.45920
vn 0.71187 -0.56949 0.41100
vn 0.79536 0.39564 -0.45920
vn 0.84891 0.19782 -0.49012
vn 0.00000 0.19782 -0.98024
vn 0.00000 0.39564 -0.91841
vn -0.84891 0.19782 -0.49012
vn -0.79536 0.39564 -0.45920
vn -0.84891 0.19782 0.49012
vn -0.79536 0.39564 0.45920
vn 0.00000 0.19782 0.98024
vn 0.00000 0.39564 0.91841
vn 0.79536 0.39564 0.45920
vn 0.84891 0.19782 0.49012
vn 0.71187 0.56949 -0.41100
vn 0.00000 0.56949 -0.82200
vn -0.71187 0.56949 -0.41100
vn -0.71187 0.56949 0.41100
vn -0.71187 0.56949 0.41100
vn 0.00000 0.56949 0.82200
vn 0.71187 0.56949 0.41100
vn 0.71187 0.56949 0.41100
vn 0.00000 1.00000 -0.00000
# 42 normals
usemtl bullets
f  6/1/1 5/2/1 4/3/1 3/4/1 2/5/1 1/6/1
f  2/7/2 8/8/3 7/9/4 1/10/2
f  9/11/5 8/12/6 2/13/7 3/14/7
f  10/15/8 9/16/9 3/17/10 4/18/10
f  11/19/11 10/15/12 4/18/13 5/20/14
f  12/21/15 11/22/16 5/23/17 6/24/17
f  1/10/18 7/9/19 12/25/20 6/26/21
f  8/8/3 14/27/22 13/28/23 7/9/4
f  15/29/24 14/30/25 8/12/6 9/11/5
f  16/31/26 15/32/27 9/16/9 10/15/8
f  17/33/28 16/31/29 10/15/12 11/19/11
f  18/34/30 17/35/31 11/22/16 12/21/15
f  7/9/19 13/28/32 18/36/33 12/25/20
f  14/27/22 20/37/34 19/38/34 13/28/23
f  21/39/35 20/40/35 14/30/25 15/29/24
f  22/41/36 21/42/36 15/32/27 16/31/26
f  23/43/37 22/41/38 16/31/29 17/33/28
f  24/44/39 23/45/39 17/35/31 18/34/30
f  13/28/32 19/38/40 24/46/41 18/36/33
f  20/47/42 21/48/42 22/49/42 23/50/42 24/51/42 19/52/42
