# 
# Wavefront OBJ file
# Converted by the DEEP Exploration Deep Exploration 5 5.0.2.1477 Release
# Right Hemisphere, LTD
# http://www.righthemisphere.com/
# 
mtllib hp.mtl
# object hp
g hp
v -1.00000 0.00000 0.40000
v 1.00000 0.00000 0.40000
v 1.00000 -0.00000 -0.40000
v -1.00000 -0.00000 -0.40000
v -1.00000 1.50000 0.40000
v -1.00000 1.50000 -0.40000
v -0.50000 2.00000 0.40000
v 1.00000 2.00000 0.40000
v 1.00000 2.00000 -0.40000
v -0.50000 2.00000 -0.40000
# 10 verticies
vt 0.46875 0.90179
vt 0.46875 0.74107
vt 0.03125 0.74107
vt 0.03125 0.90179
vt 0.68304 0.46875
vt 0.35491 0.46875
vt 0.24554 0.35938
vt 0.24554 0.03125
vt 0.68304 0.03125
vt 0.18750 0.46875
vt 0.02679 0.46875
vt 0.02679 0.03125
vt 0.18750 0.03125
vt 0.64063 0.96875
vt 0.96875 0.96875
vt 0.96875 0.53125
vt 0.53125 0.53125
vt 0.53125 0.85938
vt 0.74107 0.32738
vt 0.90179 0.32738
vt 0.90179 0.02976
vt 0.74107 0.02976
vt 0.46875 0.52679
vt 0.46875 0.68750
vt 0.14063 0.68750
vt 0.14063 0.52679
vt 0.03125 0.68750
vt 0.03125 0.52520
# 28 texture verticies
vn 0.00000 -1.00000 0.00000
vn 0.00000 0.00000 1.00000
vn 1.00000 0.00000 0.00000
vn 0.00000 -0.00000 -1.00000
vn -1.00000 0.00000 0.00000
vn 0.00000 1.00000 -0.00000
vn -0.70711 0.70711 -0.00000
# 7 normals
usemtl hp
f  3/1/1 2/2/1 1/3/1 4/4/1
f  8/5/2 7/6/2 5/7/2 1/8/2 2/9/2
f  9/10/3 8/11/3 2/12/3 3/13/3
f  10/14/4 9/15/4 3/16/4 4/17/4 6/18/4
f  5/19/5 6/20/5 4/21/5 1/22/5
f  8/23/6 9/24/6 10/25/6 7/26/6
f  10/25/7 6/27/7 5/28/7 7/26/7
