# 
# Wavefront OBJ file
# Converted by the DEEP Exploration Deep Exploration 5 5.0.2.1477 Release
# Right Hemisphere, LTD
# http://www.righthemisphere.com/
# 
mtllib screw.mtl
# object screw
g screw
v -0.60000 1.30000 0.60000
v 0.60000 1.30000 0.60000
v 0.60000 1.30000 -0.60000
v -0.60000 1.30000 -0.60000
v -0.60000 1.70000 0.60000
v 0.60000 1.70000 0.60000
v 0.60000 1.70000 -0.60000
v -0.60000 1.70000 -0.60000
v -0.30000 -0.00000 0.30000
v 0.30000 -0.00000 0.30000
v 0.30000 -0.00000 -0.30000
v -0.30000 -0.00000 -0.30000
v -0.30000 1.30000 0.30000
v 0.30000 1.30000 0.30000
v 0.30000 1.30000 -0.30000
v -0.30000 1.30000 -0.30000
# 16 verticies
vt 0.70000 0.30000
vt 0.96667 0.30000
vt 0.96667 0.03333
vt 0.70000 0.03333
vt 0.96667 0.52778
vt 0.96667 0.63889
vt 0.70000 0.63889
vt 0.70000 0.52778
vt 0.30000 0.61111
vt 0.30000 0.72222
vt 0.03333 0.72222
vt 0.03333 0.61111
vt 0.03333 0.55556
vt 0.30000 0.55556
vt 0.30000 0.44444
vt 0.03333 0.44444
vt 0.70000 0.47222
vt 0.96667 0.47222
vt 0.96667 0.36111
vt 0.70000 0.36111
vt 0.63333 0.45000
vt 0.63333 0.71667
vt 0.36667 0.71667
vt 0.36667 0.45000
vt 0.69444 0.80556
vt 0.80556 0.80556
vt 0.80556 0.69444
vt 0.69444 0.69444
vt 0.63889 0.03472
vt 0.63889 0.38194
vt 0.52778 0.38194
vt 0.52778 0.03472
vt 0.13889 0.03472
vt 0.13889 0.38194
vt 0.02778 0.38194
vt 0.02778 0.03472
vt 0.36111 0.38086
vt 0.47222 0.38194
vt 0.47222 0.03472
vt 0.36111 0.03472
vt 0.19444 0.38194
vt 0.30556 0.38194
vt 0.30556 0.03472
vt 0.19444 0.03472
# 44 texture verticies
vn 0.00000 -1.00000 0.00000
vn 0.00000 0.00000 1.00000
vn 1.00000 0.00000 0.00000
vn 0.00000 -0.00000 -1.00000
vn -1.00000 0.00000 0.00000
vn 0.00000 1.00000 -0.00000
# 6 normals
usemtl screw
f  4/1/1 3/2/1 2/3/1 1/4/1
f  2/5/2 6/6/2 5/7/2 1/8/2
f  3/9/3 7/10/3 6/11/3 2/12/3
f  8/13/4 7/14/4 3/15/4 4/16/4
f  5/17/5 8/18/5 4/19/5 1/20/5
f  6/21/6 7/22/6 8/23/6 5/24/6
f  12/25/1 11/26/1 10/27/1 9/28/1
f  10/29/2 14/30/2 13/31/2 9/32/2
f  11/33/3 15/34/3 14/35/3 10/36/3
f  16/37/4 15/38/4 11/39/4 12/40/4
f  13/41/5 16/42/5 12/43/5 9/44/5
