# 
# Wavefront OBJ file
# Converted by the DEEP Exploration Deep Exploration 5 5.0.2.1477 Release
# Right Hemisphere, LTD
# http://www.righthemisphere.com/
# 
mtllib shield.mtl
# object shield
g shield
v 0.00000 2.00000 -0.20000
v -1.00000 1.80000 -0.20000
v -1.00000 0.60000 -0.20000
v 0.00000 -0.00000 -0.20000
v 1.00000 0.60000 -0.20000
v 1.00000 1.80000 -0.20000
v 0.00000 2.00000 0.20000
v -1.00000 1.80000 0.20000
v -1.00000 0.60000 0.20000
v 0.00000 -0.00000 0.20000
v 1.00000 0.60000 0.20000
v 1.00000 1.80000 0.20000
# 12 verticies
vt 0.97500 0.09259
vt 0.75000 0.09259
vt 0.75000 0.01852
vt 0.97500 0.01852
vt 0.52500 0.09259
vt 0.52500 0.01852
vt 0.01852 0.86574
vt 0.09259 0.86574
vt 0.09259 0.63426
vt 0.01852 0.63426
vt 0.02500 0.51852
vt 0.02500 0.59259
vt 0.25000 0.59259
vt 0.25000 0.51852
vt 0.47500 0.59259
vt 0.47500 0.51852
vt 0.20370 0.63426
vt 0.20370 0.86574
vt 0.12963 0.86574
vt 0.12963 0.63426
vt 0.47500 0.43000
vt 0.47500 0.16000
vt 0.25000 0.02500
vt 0.02500 0.16000
vt 0.02500 0.43000
vt 0.25000 0.47500
vt 0.52500 0.54050
vt 0.52500 0.27111
vt 0.75000 0.13611
vt 0.97500 0.27111
vt 0.97500 0.54111
vt 0.75000 0.58611
# 32 texture verticies
vn 0.19612 0.98058 -0.00000
vn 0.00000 1.00000 -0.00000
vn -0.19612 0.98058 -0.00000
vn -1.00000 0.00000 0.00000
vn -0.51450 -0.85749 0.00000
vn 0.51450 -0.85749 0.00000
vn 1.00000 0.00000 0.00000
vn 0.00000 -0.00000 -1.00000
vn 0.00000 0.00000 1.00000
# 9 normals
usemtl shield
f  6/1/1 1/2/2 7/3/2 12/4/1
f  7/3/2 1/2/2 2/5/3 8/6/3
f  8/7/4 2/8/4 3/9/4 9/10/4
f  9/11/5 3/12/5 4/13/5 10/14/5
f  4/13/6 5/15/6 11/16/6 10/14/6
f  5/17/7 6/18/7 12/19/7 11/20/7
f  6/21/8 5/22/8 4/23/8 3/24/8 2/25/8 1/26/8
f  8/27/9 9/28/9 10/29/9 11/30/9 12/31/9 7/32/9
