# 
# Wavefront OBJ file
# Converted by the DEEP Exploration Deep Exploration 5 5.0.2.1477 Release
# Right Hemisphere, LTD
# http://www.righthemisphere.com/
# 
mtllib tank_user_head_10.mtl
# object tank_user_head_10
g tank_user_head_10
v -0.50000 -0.00000 0.50000
v 0.50000 -0.00000 0.50000
v 0.50000 -0.00000 -0.50000
v -0.50000 -0.00000 -0.50000
v -0.40000 1.40000 0.40000
v 0.40000 1.40000 0.40000
v 0.40000 1.40000 -0.40000
v -0.40000 1.40000 -0.40000
v -0.60000 1.20000 0.60000
v 0.60000 1.20000 0.60000
v 0.60000 1.20000 -0.60000
v -0.60000 1.20000 -0.60000
v -0.70000 0.20000 0.70000
v 0.70000 0.20000 0.70000
v 0.70000 0.20000 -0.70000
v -0.70000 0.20000 -0.70000
# 16 verticies
vt 0.73750 0.26250
vt 0.98250 0.26250
vt 0.98250 0.01750
vt 0.73750 0.01750
vt 0.94286 0.29714
vt 0.94286 0.50286
vt 0.73714 0.50286
vt 0.73714 0.29714
vt 0.08743 0.70200
vt 0.04114 0.65571
vt 0.31886 0.65571
vt 0.27257 0.70200
vt 0.08743 0.34200
vt 0.04114 0.29571
vt 0.31886 0.29571
vt 0.27257 0.34200
vt 0.67886 0.29571
vt 0.40114 0.29571
vt 0.44743 0.34200
vt 0.63257 0.34200
vt 0.67886 0.65571
vt 0.40114 0.65571
vt 0.44743 0.70200
vt 0.63257 0.70200
vt 0.01800 0.42429
vt 0.34200 0.42429
vt 0.29571 0.37800
vt 0.06429 0.37800
vt 0.01800 0.06429
vt 0.34200 0.06429
vt 0.29571 0.01800
vt 0.06429 0.01800
vt 0.70200 0.06429
vt 0.37800 0.06429
vt 0.42429 0.01800
vt 0.65571 0.01800
vt 0.70200 0.42429
vt 0.37800 0.42429
vt 0.42429 0.37803
vt 0.65571 0.37800
# 40 texture verticies
vn 0.00000 -1.00000 0.00000
vn 0.00000 1.00000 -0.00000
vn 0.00000 0.70711 0.70711
vn 0.70711 0.70711 -0.00000
vn 0.00000 0.70711 -0.70711
vn -0.70711 0.70711 -0.00000
vn 0.00000 0.09950 0.99504
vn 0.00000 -0.70711 0.70711
vn 0.99504 0.09950 -0.00000
vn 0.70711 -0.70711 0.00000
vn 0.00000 0.09950 -0.99504
vn 0.00000 -0.70711 -0.70711
vn -0.99504 0.09950 -0.00000
vn -0.70711 -0.70711 0.00000
# 14 normals
usemtl tank_user_head_10
f  4/1/1 3/2/1 2/3/1 1/4/1
f  6/5/2 7/6/2 8/7/2 5/8/2
f  5/9/3 9/10/3 10/11/3 6/12/3
f  6/13/4 10/14/4 11/15/4 7/16/4
f  11/17/5 12/18/5 8/19/5 7/20/5
f  12/21/6 9/22/6 5/23/6 8/24/6
f  9/10/7 13/25/7 14/26/7 10/11/7
f  2/27/8 14/26/8 13/25/8 1/28/8
f  10/14/9 14/29/9 15/30/9 11/15/9
f  3/31/10 15/30/10 14/29/10 2/32/10
f  11/17/11 15/33/11 16/34/11 12/18/11
f  4/35/12 16/34/12 15/33/12 3/36/12
f  12/21/13 16/37/13 13/38/13 9/22/13
f  1/39/14 13/38/14 16/37/14 4/40/14
