# 
# Wavefront OBJ file
# Converted by the DEEP Exploration Deep Exploration 5 5.0.2.1477 Release
# Right Hemisphere, LTD
# http://www.righthemisphere.com/
# 
mtllib commando_pistol.mtl
# object commando_pistol
g commando_pistol
v -0.60000 0.00000 0.60000
v 0.60000 0.00000 0.60000
v 0.60000 -0.00000 -0.60000
v -0.60000 -0.00000 -0.60000
v -0.60000 1.20000 0.60000
v 0.60000 1.20000 0.60000
v 0.60000 1.20000 -0.60000
v -0.60000 1.20000 -0.60000
v 0.72000 0.38400 1.32000
v 0.96000 0.38400 1.32000
v 0.72000 0.72000 1.32000
v 0.96000 0.72000 1.32000
v 0.96000 0.72000 0.12000
v 0.72000 0.72000 0.12000
v 0.96000 -0.00000 0.12000
v 0.72000 -0.00000 0.12000
v 0.72000 0.00000 0.48000
v 0.96000 0.00000 0.48000
v 0.72000 0.38400 0.48000
v 0.96000 0.38400 0.48000
# 20 verticies
vt 0.99219 0.21759
vt 0.94531 0.21759
vt 0.94531 0.36574
vt 0.99219 0.36574
vt 0.30139 0.74074
vt 0.30139 0.67160
vt 0.49194 0.67160
vt 0.49194 0.59259
vt 0.57361 0.59259
vt 0.57361 0.74074
vt 0.28194 0.59259
vt 0.20028 0.59259
vt 0.20028 0.67160
vt 0.00972 0.67160
vt 0.00972 0.74074
vt 0.28194 0.74074
vt 0.88281 0.00972
vt 0.92969 0.00972
vt 0.92969 0.28194
vt 0.88281 0.28194
vt 0.59306 0.28194
vt 0.86528 0.28194
vt 0.86528 0.00972
vt 0.59306 0.00972
vt 0.28194 0.30139
vt 0.28194 0.57361
vt 0.00972 0.57361
vt 0.00972 0.30139
vt 0.57361 0.00972
vt 0.57361 0.28194
vt 0.30139 0.28194
vt 0.30139 0.00972
vt 0.30139 0.57361
vt 0.57361 0.57361
vt 0.57361 0.30139
vt 0.30139 0.30139
vt 0.59306 0.57361
vt 0.86528 0.57361
vt 0.86528 0.30139
vt 0.59306 0.30139
vt 0.28194 0.00972
vt 0.28194 0.28194
vt 0.00972 0.28194
vt 0.00972 0.00972
vt 0.92969 0.40417
vt 0.92969 0.47083
vt 0.88281 0.47083
vt 0.88281 0.40417
vt 0.94531 0.00947
vt 0.94531 0.19886
vt 0.99219 0.19886
vt 0.99219 0.00947
vt 0.92969 0.30035
vt 0.92969 0.38715
vt 0.88281 0.38715
vt 0.88281 0.30035
vt 0.99219 0.38281
vt 0.94531 0.38333
vt 0.94531 0.45000
vt 0.99219 0.45000
# 60 texture verticies
vn 0.00000 -0.00000 -1.00000
vn 1.00000 0.00000 0.00000
vn 1.00000 -0.00000 -0.00000
vn 1.00000 -0.00000 -0.00000
vn -1.00000 0.00000 0.00000
vn 0.00000 1.00000 -0.00000
vn 0.00000 -1.00000 0.00000
vn 0.00000 0.00000 1.00000
# 8 normals
usemtl pistol
f  15/1/1 16/2/1 14/3/1 13/4/1
f  12/5/2 10/6/2 20/7/3 18/8/2 15/9/4 13/10/4
f  16/11/5 17/12/5 19/13/5 9/14/5 11/15/5 14/16/5
f  11/17/6 12/18/6 13/19/6 14/20/6
f  4/21/7 3/22/7 2/23/7 1/24/7
f  2/25/8 6/26/8 5/27/8 1/28/8
f  3/29/2 7/30/2 6/31/2 2/32/2
f  8/33/1 7/34/1 3/35/1 4/36/1
f  5/37/5 8/38/5 4/39/5 1/40/5
f  6/41/6 7/42/6 8/43/6 5/44/6
f  10/45/8 12/46/8 11/47/8 9/48/8
f  9/49/7 19/50/7 20/51/7 10/52/7
f  18/53/8 20/54/8 19/55/8 17/56/8
f  18/57/7 17/58/7 16/59/7 15/60/7
