# 
# Wavefront OBJ file
# Converted by the DEEP Exploration Deep Exploration 5 5.0.2.1477 Release
# Right Hemisphere, LTD
# http://www.righthemisphere.com/
# 
mtllib commando_machine.mtl
# object commando_machine
g commando_machine
v -0.90000 0.64000 1.72000
v -0.70000 0.64000 1.72000
v -0.70000 0.44000 -0.48000
v -0.90000 0.44000 -0.48000
v -0.90000 0.84000 1.72000
v -0.70000 0.84000 1.72000
v -0.70000 0.84000 -0.48000
v -0.90000 0.84000 -0.48000
v -0.90000 0.14000 1.02000
v -0.70000 0.14000 1.02000
v -0.70000 0.04000 0.72000
v -0.90000 0.04000 0.72000
v -0.90000 0.24000 0.22000
v -0.70000 0.24000 0.22000
v -0.70000 0.24000 -0.08000
v -0.90000 0.24000 -0.08000
v -0.70000 0.64000 0.84000
v -0.90000 0.64000 0.84000
v -0.70000 0.64000 0.52000
v -0.90000 0.64000 0.52000
v -0.70000 0.64000 0.22000
v -0.90000 0.64000 0.22000
v -0.70000 0.64000 -0.08000
v -0.90000 0.64000 -0.08000
v -0.60000 0.00000 0.60000
v 0.60000 0.00000 0.60000
v 0.60000 -0.00000 -0.60000
v -0.60000 -0.00000 -0.60000
v -0.60000 1.20000 0.60000
v 0.60000 1.20000 0.60000
v 0.60000 1.20000 -0.60000
v -0.60000 1.20000 -0.60000
# 32 verticies
vt 0.34449 0.14500
vt 0.41128 0.14500
vt 0.41128 0.05500
vt 0.47807 0.05500
vt 0.47807 0.14500
vt 0.56713 0.10000
vt 0.56713 0.19000
vt 0.07731 0.19000
vt 0.07731 0.14500
vt 0.27324 0.14500
vt 0.23316 0.03250
vt 0.29996 0.01000
vt 0.41128 0.34500
vt 0.34449 0.34500
vt 0.29996 0.21000
vt 0.23316 0.23250
vt 0.27324 0.34500
vt 0.07731 0.34500
vt 0.07731 0.39000
vt 0.56713 0.39000
vt 0.56713 0.30000
vt 0.47807 0.34500
vt 0.47807 0.25500
vt 0.41128 0.25500
vt 0.05833 0.50046
vt 0.00833 0.50046
vt 0.00833 0.01065
vt 0.05833 0.01065
vt 0.87500 0.19000
vt 0.92500 0.19000
vt 0.92500 0.01000
vt 0.87500 0.01000
vt 0.36389 0.48000
vt 0.41389 0.48000
vt 0.41389 0.40889
vt 0.36389 0.40889
vt 0.94167 0.36852
vt 0.99167 0.36852
vt 0.99167 0.27593
vt 0.94167 0.27593
vt 0.54722 0.40833
vt 0.54722 0.45833
vt 0.49722 0.45833
vt 0.49722 0.40833
vt 0.87500 0.30185
vt 0.92500 0.30185
vt 0.92500 0.20926
vt 0.87500 0.20926
vt 0.99167 0.14286
vt 0.99167 0.25714
vt 0.94167 0.25714
vt 0.94167 0.14286
vt 0.94167 0.12381
vt 0.99167 0.12381
vt 0.99167 0.07810
vt 0.94167 0.07810
vt 0.99167 0.00952
vt 0.94167 0.00952
vt 0.99167 0.38704
vt 0.99167 0.47963
vt 0.94167 0.47963
vt 0.94167 0.38704
vt 0.87500 0.41296
vt 0.92500 0.41296
vt 0.92500 0.32037
vt 0.87500 0.32037
vt 0.43056 0.45833
vt 0.48056 0.45833
vt 0.48056 0.40833
vt 0.43056 0.40833
vt 0.65476 0.85635
vt 0.92302 0.85635
vt 0.92302 0.58810
vt 0.65476 0.58810
vt 0.27857 0.69921
vt 0.27857 0.96746
vt 0.01032 0.96746
vt 0.01032 0.69921
vt 0.34524 0.41032
vt 0.34524 0.67857
vt 0.07698 0.67857
vt 0.07698 0.41032
vt 0.36587 0.85635
vt 0.63413 0.85635
vt 0.63413 0.58810
vt 0.36587 0.58810
vt 0.58810 0.56676
vt 0.85635 0.56746
vt 0.85635 0.29921
vt 0.58810 0.29921
vt 0.85635 0.01032
vt 0.85635 0.27857
vt 0.58810 0.27857
vt 0.58810 0.01032
# 94 texture verticies
vn 1.00000 0.00000 0.00000
vn -1.00000 0.00000 0.00000
vn 0.00000 1.00000 -0.00000
vn 0.00000 -1.00000 0.00000
vn 0.00000 -0.89443 0.44721
vn 0.00000 0.00000 1.00000
vn 0.00000 -0.00000 -1.00000
vn 0.00000 0.33872 0.94089
vn 0.00000 -0.31623 -0.94868
vn 0.00000 -0.94868 0.31623
# 10 normals
usemtl machine
f  19/1/1 21/2/1 14/3/1 15/4/1 23/5/1 3/6/1 7/7/1 6/8/1 2/9/1 17/10/1\
10/11/1 11/12/1
f  22/13/2 20/14/2 12/15/2 9/16/2 18/17/2 1/18/2 5/19/2 8/20/2 4/21/2\
24/22/2 16/23/2 13/24/2
f  7/25/3 8/26/3 5/27/3 6/28/3
f  18/29/4 17/30/4 2/31/4 1/32/4
f  22/33/4 21/34/4 19/35/4 20/36/4
f  4/37/5 3/38/5 23/39/5 24/40/5
f  2/41/6 6/42/6 5/43/6 1/44/6
f  8/45/7 7/46/7 3/47/7 4/48/7
f  10/49/8 17/50/8 18/51/8 9/52/8
f  20/53/9 19/54/9 11/55/9 12/56/9
f  12/56/10 11/55/10 10/57/10 9/58/10
f  14/59/6 21/60/6 22/61/6 13/62/6
f  24/63/7 23/64/7 15/65/7 16/66/7
f  16/67/4 15/68/4 14/69/4 13/70/4
f  28/71/4 27/72/4 26/73/4 25/74/4
f  26/75/6 30/76/6 29/77/6 25/78/6
f  27/79/1 31/80/1 30/81/1 26/82/1
f  32/83/7 31/84/7 27/85/7 28/86/7
f  29/87/2 32/88/2 28/89/2 25/90/2
f  30/91/3 31/92/3 32/93/3 29/94/3
