# 
# Wavefront OBJ file
# Converted by the DEEP Exploration Deep Exploration 5 5.0.2.1477 Release
# Right Hemisphere, LTD
# http://www.righthemisphere.com/
# 
mtllib commando_ bazooka.mtl
# object commando_ bazooka
g commando__bazooka
v 0.50000 0.30000 1.10000
v 1.30000 0.30000 1.10000
v 1.10000 0.50000 0.70000
v 1.10000 0.50000 -0.70000
v 1.30000 0.30000 -0.90000
v 0.50000 0.30000 -0.90000
v 0.70000 0.50000 -0.70000
v 0.70000 0.50000 0.70000
v 0.50000 1.10000 1.10000
v 1.30000 1.10000 1.10000
v 1.10000 0.90000 0.70000
v 1.10000 0.90000 -0.70000
v 1.30000 1.10000 -0.90000
v 0.50000 1.10000 -0.90000
v 0.70000 0.90000 -0.70000
v 0.70000 0.90000 0.70000
v -0.60000 0.00000 0.60000
v 0.60000 0.00000 0.60000
v 0.60000 -0.00000 -0.60000
v -0.60000 -0.00000 -0.60000
v -0.60000 1.20000 0.60000
v 0.60000 1.20000 0.60000
v 0.60000 1.20000 -0.60000
v -0.60000 1.20000 -0.60000
# 24 verticies
vt 0.05217 0.09783
vt 0.12174 0.09783
vt 0.15652 0.01957
vt 0.01739 0.01957
vt 0.05217 0.37174
vt 0.12174 0.37174
vt 0.45217 0.66957
vt 0.59130 0.66957
vt 0.55652 0.70435
vt 0.48696 0.70435
vt 0.41739 0.62609
vt 0.41739 0.76522
vt 0.27826 0.76522
vt 0.27826 0.62609
vt 0.27174 0.05217
vt 0.27174 0.12174
vt 0.19348 0.15652
vt 0.19348 0.01739
vt 0.54565 0.05217
vt 0.54565 0.12174
vt 0.59130 0.80870
vt 0.55652 0.77391
vt 0.01739 0.54783
vt 0.15652 0.54783
vt 0.15652 0.40870
vt 0.01739 0.40870
vt 0.48696 0.77391
vt 0.45217 0.80870
vt 0.27174 0.29565
vt 0.54565 0.29565
vt 0.54565 0.22609
vt 0.27174 0.22609
vt 0.19348 0.33043
vt 0.19348 0.19130
vt 0.72174 0.01957
vt 0.68696 0.09783
vt 0.61739 0.09783
vt 0.58261 0.01957
vt 0.68696 0.37174
vt 0.61739 0.37174
vt 0.75776 0.50311
vt 0.98137 0.50311
vt 0.98137 0.27950
vt 0.75776 0.27950
vt 0.98137 0.01863
vt 0.98137 0.24224
vt 0.75776 0.24224
vt 0.75776 0.01863
vt 0.41615 0.36646
vt 0.41615 0.59006
vt 0.19255 0.59006
vt 0.19255 0.36646
vt 0.45342 0.63354
vt 0.67702 0.63354
vt 0.67702 0.40994
vt 0.45342 0.40994
vt 0.01863 0.85093
vt 0.24224 0.85093
vt 0.24224 0.62733
vt 0.01863 0.62733
vt 0.93789 0.54076
vt 0.93789 0.76398
vt 0.71429 0.76398
vt 0.71429 0.54037
# 64 texture verticies
vn 0.00000 -0.95223 -0.30539
vn 0.00000 -0.98827 -0.15270
vn 0.00000 -0.89443 -0.44721
vn 0.00000 -1.00000 0.00000
vn 0.00000 -0.70711 0.70711
vn 0.00000 0.00000 1.00000
vn 0.95223 -0.00000 -0.30539
vn 0.98827 -0.00000 -0.15270
vn 0.89443 -0.00000 -0.44721
vn 1.00000 0.00000 0.00000
vn 0.70711 0.00000 0.70711
vn 0.00000 -0.00000 -1.00000
vn -0.70711 0.00000 0.70711
vn -0.98827 -0.00000 -0.15270
vn -1.00000 0.00000 0.00000
vn -0.95223 -0.00000 -0.30539
vn -0.89443 -0.00000 -0.44721
vn 0.00000 0.89443 -0.44721
vn 0.00000 0.98827 -0.15270
vn 0.00000 0.95223 -0.30539
vn 0.00000 1.00000 -0.00000
vn 0.00000 0.70711 0.70711
# 22 normals
usemtl bazooka
f  8/1/1 3/2/2 2/3/3 1/4/3
f  7/5/4 4/6/4 3/2/2 8/1/1
f  6/7/5 5/8/5 4/9/5 7/10/5
f  2/11/6 10/12/6 9/13/6 1/14/6
f  3/15/7 11/16/8 10/17/9 2/18/9
f  4/19/10 12/20/10 11/16/8 3/15/7
f  5/8/11 13/21/11 12/22/11 4/9/11
f  14/23/12 13/24/12 5/25/12 6/26/12
f  15/27/13 14/28/13 6/7/13 7/10/13
f  16/29/14 15/30/15 7/31/15 8/32/16
f  9/33/17 16/29/14 8/32/16 1/34/17
f  10/35/18 11/36/19 16/37/20 9/38/18
f  11/36/19 12/39/21 15/40/21 16/37/20
f  12/22/22 13/21/22 14/28/22 15/27/22
f  20/41/4 19/42/4 18/43/4 17/44/4
f  18/45/6 22/46/6 21/47/6 17/48/6
f  19/49/10 23/50/10 22/51/10 18/52/10
f  24/53/12 23/54/12 19/55/12 20/56/12
f  21/57/15 24/58/15 20/59/15 17/60/15
f  22/61/21 23/62/21 24/63/21 21/64/21
