# 
# Wavefront OBJ file
# Converted by the DEEP Exploration Deep Exploration 5 5.0.2.1477 Release
# Right Hemisphere, LTD
# http://www.righthemisphere.com/
# 
mtllib commando_mechanic.mtl
# object commando_mechanic
g commando_mechanic
v -0.96000 0.25800 1.07362
v -0.56000 0.25800 1.07362
v -0.56000 0.95770 0.68577
v -0.96000 0.95770 0.68577
v -0.96000 0.45192 1.42347
v -0.56000 0.45192 1.42347
v -0.56000 1.15162 1.03562
v -0.96000 1.15162 1.03562
v -0.86000 0.13254 0.22848
v -0.66000 0.13254 0.22848
v -0.66000 0.30746 0.13152
v -0.86000 0.30746 0.13152
v -0.86000 0.76279 1.36549
v -0.66000 0.76279 1.36549
v -0.66000 0.93771 1.26852
v -0.86000 0.93771 1.26852
v 0.70000 0.13254 0.12848
v 0.90000 0.13254 0.12848
v 0.90000 0.30746 0.03152
v 0.70000 0.30746 0.03152
v 0.70000 0.34546 0.92514
v 0.90000 0.34546 0.92514
v 0.70000 0.87023 0.63425
v 0.90000 0.87023 0.63425
v 0.70000 0.52039 0.82818
v 0.90000 0.52039 0.82818
v 0.90000 0.69531 0.73121
v 0.70000 0.69531 0.73121
v 0.70000 0.58787 1.36245
v 0.70000 0.76279 1.26549
v 0.90000 0.76279 1.26549
v 0.90000 0.58787 1.36245
v 0.70000 0.93771 1.16852
v 0.70000 1.11264 1.07156
v 0.90000 1.11264 1.07156
v 0.90000 0.93771 1.16852
v 0.70000 0.61735 1.00310
v 0.90000 0.61735 1.00310
v 0.90000 0.79227 0.90614
v 0.70000 0.79227 0.90614
v -0.60000 0.00000 0.60000
v 0.60000 0.00000 0.60000
v 0.60000 -0.00000 -0.60000
v -0.60000 -0.00000 -0.60000
v -0.60000 1.20000 0.60000
v 0.60000 1.20000 0.60000
v 0.60000 1.20000 -0.60000
v -0.60000 1.20000 -0.60000
# 48 verticies
vt 0.52591 0.30575
vt 0.47612 0.30575
vt 0.47612 0.23780
vt 0.42632 0.23780
vt 0.42632 0.30575
vt 0.37652 0.30575
vt 0.37652 0.19251
vt 0.42632 0.19251
vt 0.42632 0.01132
vt 0.47612 0.01132
vt 0.47612 0.19251
vt 0.52591 0.19251
vt 0.20579 0.30575
vt 0.25559 0.30575
vt 0.25559 0.23780
vt 0.30539 0.23780
vt 0.30539 0.30575
vt 0.35518 0.30575
vt 0.35518 0.19251
vt 0.30539 0.19251
vt 0.30539 0.01132
vt 0.25559 0.01132
vt 0.25559 0.19251
vt 0.20579 0.19251
vt 0.94309 0.30691
vt 0.91057 0.30691
vt 0.91057 0.20528
vt 0.94309 0.20528
vt 0.86179 0.30691
vt 0.89431 0.30691
vt 0.89431 0.20528
vt 0.86179 0.20528
vt 0.86382 0.18428
vt 0.96545 0.18428
vt 0.96545 0.01084
vt 0.86382 0.01084
vt 0.86789 0.83902
vt 0.86789 0.91707
vt 0.76626 0.91707
vt 0.76626 0.83902
vt 0.94038 0.74146
vt 0.94038 0.81951
vt 0.76694 0.81951
vt 0.76694 0.74146
vt 0.64431 0.91707
vt 0.74593 0.91707
vt 0.74593 0.83902
vt 0.64431 0.83902
vt 0.76694 0.72195
vt 0.94038 0.72195
vt 0.94038 0.64390
vt 0.76694 0.64390
vt 0.74593 0.64499
vt 0.74593 0.81843
vt 0.64431 0.81843
vt 0.64431 0.64499
vt 0.64228 0.96748
vt 0.67480 0.96748
vt 0.67480 0.93496
vt 0.64228 0.93496
vt 0.04065 0.01132
vt 0.04065 0.30575
vt 0.00813 0.30575
vt 0.00813 0.01132
vt 0.13821 0.01132
vt 0.13821 0.30575
vt 0.10569 0.30575
vt 0.10569 0.01132
vt 0.15447 0.30575
vt 0.18699 0.30575
vt 0.18699 0.01132
vt 0.15447 0.01132
vt 0.05691 0.30575
vt 0.08943 0.30575
vt 0.08943 0.01132
vt 0.05691 0.01132
vt 0.91870 0.91057
vt 0.91870 0.94309
vt 0.88618 0.94309
vt 0.88618 0.91057
vt 0.69106 0.96748
vt 0.72358 0.96748
vt 0.72358 0.93496
vt 0.69106 0.93496
vt 0.99187 0.20596
vt 0.99187 0.37940
vt 0.95935 0.37940
vt 0.95935 0.20596
vt 0.95935 0.57453
vt 0.99187 0.57453
vt 0.99187 0.40108
vt 0.95935 0.40108
vt 0.77236 0.93496
vt 0.77236 0.96748
vt 0.73984 0.96748
vt 0.73984 0.93496
vt 0.93496 0.94207
vt 0.96748 0.94207
vt 0.96748 0.88720
vt 0.93496 0.88720
vt 0.95935 0.86890
vt 0.99187 0.86890
vt 0.99187 0.81402
vt 0.95935 0.81402
vt 0.95935 0.64939
vt 0.99187 0.64939
vt 0.99187 0.59451
vt 0.95935 0.59451
vt 0.99187 0.66768
vt 0.99187 0.72256
vt 0.95935 0.72256
vt 0.95935 0.66768
vt 0.91870 0.83841
vt 0.91870 0.89329
vt 0.88618 0.89329
vt 0.88618 0.83841
vt 0.99187 0.74085
vt 0.99187 0.79573
vt 0.95935 0.79573
vt 0.95935 0.74085
vt 0.32840 0.62282
vt 0.62282 0.62282
vt 0.62282 0.32840
vt 0.32840 0.32840
vt 0.30575 0.32840
vt 0.30575 0.62282
vt 0.01132 0.62282
vt 0.01132 0.32840
vt 0.30575 0.64547
vt 0.30575 0.93990
vt 0.01132 0.93990
vt 0.01132 0.64547
vt 0.54791 0.30575
vt 0.84233 0.30575
vt 0.84233 0.01132
vt 0.54791 0.01132
vt 0.32840 0.93990
vt 0.62282 0.93990
vt 0.62282 0.64547
vt 0.32840 0.64547
vt 0.93990 0.32898
vt 0.93990 0.62282
vt 0.64547 0.62282
vt 0.64547 0.32840
# 144 texture verticies
vn 1.00000 0.00000 0.00000
vn -1.00000 0.00000 0.00000
vn 0.00000 -0.87462 0.48481
vn 0.00000 0.87462 -0.48481
vn 0.00000 -0.48481 -0.87462
vn 0.00000 -0.87462 0.48481
vn 0.00000 0.87462 -0.48481
vn 0.00000 0.48481 0.87462
vn 0.00000 -0.48481 -0.87462
vn 0.00000 -0.87462 0.48481
vn 0.00000 0.87462 -0.48481
vn 0.00000 0.48481 0.87462
vn 0.00000 -0.48481 -0.87462
vn 0.00000 -0.87462 0.48481
vn 0.00000 0.87462 -0.48481
vn 0.00000 0.48481 0.87462
vn 0.00000 0.87462 -0.48481
vn 0.00000 -0.87462 0.48481
vn 0.00000 -1.00000 0.00000
vn 0.00000 0.00000 1.00000
vn 0.00000 -0.00000 -1.00000
vn 0.00000 1.00000 -0.00000
# 22 normals
usemtl mechanic
f  35/1/1 36/2/1 39/3/1 38/4/1 31/5/1 32/6/1 22/7/1 26/8/1 18/9/1\
19/10/1 27/11/1 24/12/1
f  29/13/2 30/14/2 37/15/2 40/16/2 33/17/2 34/18/2 23/19/2 28/20/2\
20/21/2 17/22/2 25/23/2 21/24/2
f  32/25/3 29/26/3 21/27/3 22/28/3
f  34/29/4 35/30/4 24/31/4 23/32/4
f  4/33/5 3/34/5 2/35/5 1/36/5
f  2/37/6 6/38/6 5/39/6 1/40/6
f  3/41/1 7/42/1 6/43/1 2/44/1
f  8/45/7 7/46/7 3/47/7 4/48/7
f  5/49/2 8/50/2 4/51/2 1/52/2
f  6/53/8 7/54/8 8/55/8 5/56/8
f  12/57/9 11/58/9 10/59/9 9/60/9
f  10/61/10 14/62/10 13/63/10 9/64/10
f  11/65/1 15/66/1 14/67/1 10/68/1
f  16/69/11 15/70/11 11/71/11 12/72/11
f  13/73/2 16/74/2 12/75/2 9/76/2
f  14/77/12 15/78/12 16/79/12 13/80/12
f  20/81/13 19/82/13 18/83/13 17/84/13
f  18/85/14 26/86/14 25/87/14 17/88/14
f  28/89/15 27/90/15 19/91/15 20/92/15
f  38/93/16 39/94/16 40/95/16 37/96/16
f  25/97/5 26/98/5 22/99/5 21/100/5
f  23/101/5 24/102/5 27/103/5 28/104/5
f  30/105/17 31/106/17 38/107/17 37/108/17
f  39/109/18 36/110/18 33/111/18 40/112/18
f  32/113/12 31/114/12 30/115/12 29/116/12
f  36/117/16 35/118/16 34/119/16 33/120/16
f  44/121/19 43/122/19 42/123/19 41/124/19
f  42/125/20 46/126/20 45/127/20 41/128/20
f  43/129/1 47/130/1 46/131/1 42/132/1
f  48/133/21 47/134/21 43/135/21 44/136/21
f  45/137/2 48/138/2 44/139/2 41/140/2
f  46/141/22 47/142/22 48/143/22 45/144/22
