# 
# Wavefront OBJ file
# Converted by the DEEP Exploration Deep Exploration 5 5.0.2.1477 Release
# Right Hemisphere, LTD
# http://www.righthemisphere.com/
# 
mtllib commando_mine.mtl
# object commando_mine
g commando_mine
v -0.50000 1.40000 0.50000
v 0.50000 1.40000 0.50000
v 0.50000 1.40000 -0.50000
v -0.50000 1.40000 -0.50000
v -0.30000 1.60000 0.30000
v 0.30000 1.60000 0.30000
v 0.30000 1.60000 -0.30000
v -0.30000 1.60000 -0.30000
v -0.20000 1.60000 0.20000
v 0.20000 1.60000 0.20000
v 0.20000 1.60000 -0.20000
v -0.20000 1.60000 -0.20000
v -0.20000 1.80000 0.20000
v 0.20000 1.80000 0.20000
v 0.20000 1.80000 -0.20000
v -0.20000 1.80000 -0.20000
v -0.60000 0.00000 0.60000
v 0.60000 0.00000 0.60000
v 0.60000 -0.00000 -0.60000
v -0.60000 -0.00000 -0.60000
v -0.60000 1.20000 0.60000
v 0.60000 1.20000 0.60000
v 0.60000 1.20000 -0.60000
v -0.60000 1.20000 -0.60000
# 24 verticies
vt 0.24313 0.82664
vt 0.45455 0.82664
vt 0.45455 0.61522
vt 0.24313 0.61522
vt 0.22199 0.61522
vt 0.17970 0.65751
vt 0.05285 0.65751
vt 0.01057 0.61522
vt 0.22199 0.82664
vt 0.17970 0.78436
vt 0.05285 0.78436
vt 0.01057 0.82664
vt 0.99070 0.00775
vt 0.99070 0.03876
vt 0.91628 0.03876
vt 0.91628 0.00775
vt 0.99070 0.05426
vt 0.99070 0.08527
vt 0.91628 0.08527
vt 0.91628 0.05426
vt 0.91628 0.13178
vt 0.99070 0.13178
vt 0.99070 0.10078
vt 0.91628 0.10078
vt 0.91628 0.27132
vt 0.99070 0.27132
vt 0.99070 0.24031
vt 0.91628 0.24031
vt 0.99070 0.14884
vt 0.99070 0.22326
vt 0.91628 0.22326
vt 0.91628 0.14884
vt 0.31312 0.59385
vt 0.59385 0.59385
vt 0.59385 0.31312
vt 0.31312 0.31312
vt 0.89618 0.31312
vt 0.89618 0.59385
vt 0.61545 0.59385
vt 0.61545 0.31312
vt 0.89618 0.01080
vt 0.89618 0.29153
vt 0.61545 0.29153
vt 0.61545 0.01080
vt 0.31312 0.29153
vt 0.59385 0.29153
vt 0.59385 0.01080
vt 0.31312 0.01080
vt 0.01080 0.59375
vt 0.29153 0.59385
vt 0.29153 0.31312
vt 0.01080 0.31312
vt 0.29153 0.01080
vt 0.29153 0.29153
vt 0.01080 0.29153
vt 0.01080 0.01080
# 56 texture verticies
vn 0.00000 -1.00000 0.00000
vn 0.00000 0.70711 0.70711
vn 0.70711 0.70711 -0.00000
vn 0.00000 0.70711 -0.70711
vn -0.70711 0.70711 -0.00000
vn 0.00000 1.00000 -0.00000
vn 0.00000 0.00000 1.00000
vn 1.00000 0.00000 0.00000
vn 0.00000 -0.00000 -1.00000
vn -1.00000 0.00000 0.00000
# 10 normals
usemtl mine
f  4/1/1 3/2/1 2/3/1 1/4/1
f  2/5/2 6/6/2 5/7/2 1/8/2
f  3/9/3 7/10/3 6/6/3 2/5/3
f  8/11/4 7/10/4 3/9/4 4/12/4
f  5/7/5 8/11/5 4/12/5 1/8/5
f  6/6/6 7/10/6 8/11/6 5/7/6
f  10/13/7 14/14/7 13/15/7 9/16/7
f  11/17/8 15/18/8 14/19/8 10/20/8
f  16/21/9 15/22/9 11/23/9 12/24/9
f  13/25/10 16/26/10 12/27/10 9/28/10
f  14/29/6 15/30/6 16/31/6 13/32/6
f  20/33/1 19/34/1 18/35/1 17/36/1
f  18/37/7 22/38/7 21/39/7 17/40/7
f  19/41/8 23/42/8 22/43/8 18/44/8
f  24/45/9 23/46/9 19/47/9 20/48/9
f  21/49/10 24/50/10 20/51/10 17/52/10
f  22/53/6 23/54/6 24/55/6 21/56/6
