# 
# Wavefront OBJ file
# Converted by the DEEP Exploration Deep Exploration 5 5.0.2.1477 Release
# Right Hemisphere, LTD
# http://www.righthemisphere.com/
# 
mtllib mine.mtl
# object mine
g mine
v -0.50000 -0.00000 0.50000
v 0.50000 -0.00000 0.50000
v 0.50000 -0.00000 -0.50000
v -0.50000 -0.00000 -0.50000
v -0.30000 0.20000 0.30000
v 0.30000 0.20000 0.30000
v 0.30000 0.20000 -0.30000
v -0.30000 0.20000 -0.30000
v -0.20000 0.20000 0.20000
v 0.20000 0.20000 0.20000
v 0.20000 0.20000 -0.20000
v -0.20000 0.20000 -0.20000
v -0.20000 0.40000 0.20000
v 0.20000 0.40000 0.20000
v 0.20000 0.40000 -0.20000
v -0.20000 0.40000 -0.20000
# 16 verticies
vt 0.24313 0.82664
vt 0.45455 0.82664
vt 0.45455 0.61522
vt 0.24313 0.61522
vt 0.22199 0.61522
vt 0.17970 0.65751
vt 0.05285 0.65751
vt 0.01057 0.61522
vt 0.22199 0.82664
vt 0.17970 0.78436
vt 0.05285 0.78436
vt 0.01057 0.82664
vt 0.99070 0.00775
vt 0.99070 0.03876
vt 0.91628 0.03876
vt 0.91628 0.00775
vt 0.99070 0.05426
vt 0.99070 0.08527
vt 0.91628 0.08527
vt 0.91628 0.05426
vt 0.91628 0.13178
vt 0.99070 0.13178
vt 0.99070 0.10078
vt 0.91628 0.10078
vt 0.91628 0.27132
vt 0.99070 0.27132
vt 0.99070 0.24031
vt 0.91628 0.24031
vt 0.99070 0.14922
vt 0.99070 0.22326
vt 0.91628 0.22326
vt 0.91628 0.14884
# 32 texture verticies
vn 0.00000 -1.00000 0.00000
vn 0.00000 0.70711 0.70711
vn 0.70711 0.70711 -0.00000
vn 0.00000 0.70711 -0.70711
vn -0.70711 0.70711 -0.00000
vn 0.00000 1.00000 -0.00000
vn 0.00000 0.00000 1.00000
vn 1.00000 0.00000 0.00000
vn 0.00000 -0.00000 -1.00000
vn -1.00000 0.00000 0.00000
# 10 normals
usemtl mine
f  4/1/1 3/2/1 2/3/1 1/4/1
f  2/5/2 6/6/2 5/7/2 1/8/2
f  3/9/3 7/10/3 6/6/3 2/5/3
f  8/11/4 7/10/4 3/9/4 4/12/4
f  5/7/5 8/11/5 4/12/5 1/8/5
f  6/6/6 7/10/6 8/11/6 5/7/6
f  10/13/7 14/14/7 13/15/7 9/16/7
f  11/17/8 15/18/8 14/19/8 10/20/8
f  16/21/9 15/22/9 11/23/9 12/24/9
f  13/25/10 16/26/10 12/27/10 9/28/10
f  14/29/6 15/30/6 16/31/6 13/32/6
